<?xml version="1.0" standalone="no"?>
<!DOCTYPE svg PUBLIC "-//W3C//DTD SVG 1.1//EN" "http://www.w3.org/Graphics/SVG/1.1/DTD/svg11.dtd" >
<svg>
<metadata>
Created by FontForge 20120731 at Wed Aug 19 19:17:09 2020
 By www
HTF Gotham  Copr. 2000 The Hoefler Type Foundry, Inc. Info: www.typography.com
</metadata>
<defs>
<font id="GothamBook" horiz-adv-x="500" >
  <font-face 
    font-family="Gotham Book"
    font-weight="400"
    font-stretch="normal"
    units-per-em="1000"
    panose-1="2 0 6 3 4 0 0 2 0 4"
    ascent="800"
    descent="-200"
    x-height="517"
    cap-height="700"
    bbox="-68 -164.694 1158 907"
    underline-thickness="20"
    underline-position="-113"
    unicode-range="U+0020-FB02"
  />
<missing-glyph 
 />
    <glyph glyph-name="fi" unicode="fi" horiz-adv-x="631" 
d="M461 517h76v-517h-76v517zM115 449h-71v67h71v45q0 88 45 133q40 40 111 40q27 0 46.5 -3t38.5 -10v-67q-21 6 -38 9.5t-37 3.5q-90 0 -90 -110v-42h164v-66h-163v-449h-77v449zM455 715h88v-85h-88v85z" />
    <glyph glyph-name="fl" unicode="fl" horiz-adv-x="631" 
d="M461 730h76v-730h-76v730zM115 449h-71v67h71v45q0 88 45 133q40 40 111 40q27 0 46.5 -3t38.5 -10v-67q-21 6 -38 9.5t-37 3.5q-90 0 -90 -110v-42h164v-66h-163v-449h-77v449z" />
    <glyph glyph-name=".notdef" 
 />
    <glyph glyph-name=".null" horiz-adv-x="0" 
 />
    <glyph glyph-name="nonmarkingreturn" horiz-adv-x="300" 
 />
    <glyph glyph-name="space" unicode=" " horiz-adv-x="300" 
 />
    <glyph glyph-name="exclam" unicode="!" horiz-adv-x="271" 
d="M90 105h92v-105h-92v105zM91 643v57h90v-57l-24 -445h-43z" />
    <glyph glyph-name="quotedbl" unicode="&#x22;" horiz-adv-x="440" 
d="M95 700h93v-5l-81 -267h-42zM291 700h92v-5l-81 -267h-42z" />
    <glyph glyph-name="numbersign" unicode="#" horiz-adv-x="700" 
d="M427 246l36 212h-190l-36 -212h190zM154 177h-109v69h121l37 212h-119v69h130l30 173h70l-29 -173h190l30 173h70l-29 -173h108v-69h-120l-37 -212h118v-69h-129l-31 -177h-70l30 177h-190l-31 -177h-70z" />
    <glyph glyph-name="dollar" unicode="$" horiz-adv-x="636" 
d="M353 67q64 3 101.5 35t37.5 81v2q0 22 -6 40t-22 32.5t-42.5 26.5t-68.5 22v-239zM295 633q-63 -2 -99.5 -34t-36.5 -78v-2q0 -21 6 -38.5t21 -32.5t41.5 -27.5t67.5 -22.5v235zM292 2q-67 6 -125 32t-111 71l45 60q45 -41 91 -65t103 -30v250q-111 26 -162 71t-51 123v2
q0 39 15.5 71.5t43.5 57t66.5 39t84.5 16.5v58h64v-60q57 -5 102 -25.5t89 -54.5l-43 -60q-36 31 -73.5 48t-77.5 24v-246q114 -26 165 -72t51 -122v-2q0 -40 -15.5 -73.5t-43.5 -58t-67.5 -39t-86.5 -17.5v-98h-64v100z" />
    <glyph glyph-name="percent" unicode="%" horiz-adv-x="834" 
d="M624 48q21 0 37.5 9.5t28.5 26t18.5 38.5t6.5 47v2q0 26 -7 48.5t-20 39t-30 26t-36 9.5q-20 0 -37 -9.5t-29 -26t-18.5 -38.5t-6.5 -47v-2q0 -26 7 -48.5t20 -39t29.5 -26t36.5 -9.5zM212 406q20 0 37 9.5t29 26t18.5 38.5t6.5 47v2q0 26 -7.5 48.5t-20 39t-29.5 26
t-36 9.5q-21 0 -37.5 -9.5t-28.5 -26t-18.5 -38.5t-6.5 -47v-2q0 -26 7 -48.5t20 -39t29.5 -26t36.5 -9.5zM622 -8q-35 0 -64 14.5t-49.5 39t-32 56.5t-11.5 67v2q0 36 11.5 68t32.5 57t50 39.5t65 14.5t65 -14.5t49.5 -39t31.5 -56.5t11 -67v-2q0 -36 -11.5 -68t-32 -57
t-50 -39.5t-65.5 -14.5zM638 700h71l-513 -700h-72zM210 350q-36 0 -65 14.5t-49.5 39t-32 56.5t-11.5 67v2q0 36 11.5 68t32.5 57t50.5 39.5t65.5 14.5q35 0 64 -14.5t49.5 -39t32 -56.5t11.5 -67v-2q0 -36 -11.5 -68t-32.5 -57t-50 -39.5t-65 -14.5z" />
    <glyph glyph-name="ampersand" unicode="&#x26;" horiz-adv-x="696" 
d="M271 57q50 0 93.5 24.5t81.5 66.5l-187 193q-70 -26 -102 -65.5t-32 -84.5v-2q0 -28 10.5 -52t30 -42t46.5 -28t59 -10zM290 415q67 23 101 55.5t34 77.5v2q0 42 -28 69.5t-71 27.5q-48 0 -77 -29t-29 -72v-2q0 -15 3.5 -29.5t11.5 -29.5t21.5 -32t33.5 -38zM494 99
q-48 -52 -104 -80.5t-125 -28.5q-47 0 -87.5 14t-70 40t-46 62t-16.5 80v2q0 70 44 120t125 82q-36 42 -53 77t-17 77v2q0 34 13.5 64.5t37.5 53t58 35.5t76 13q37 0 68 -12.5t53.5 -34t35.5 -50t13 -61.5v-2q0 -67 -44 -111t-121 -71l160 -163q23 34 44 73t40 83l65 -30
q-23 -50 -47.5 -94t-53.5 -82l122 -125l-60 -46z" />
    <glyph glyph-name="quotesingle" unicode="'" horiz-adv-x="245" 
d="M95 700h94v-5l-81 -267h-43z" />
    <glyph glyph-name="parenleft" unicode="(" horiz-adv-x="434" 
d="M345 -141q-134 75 -205.5 182t-71.5 246t71.5 246t205.5 182l33 -51q-115 -73 -173.5 -164.5t-58.5 -212.5t58.5 -212.5t173.5 -164.5z" />
    <glyph glyph-name="parenright" unicode=")" horiz-adv-x="434" 
d="M56 -90q115 73 173.5 164.5t58.5 212.5t-58.5 212.5t-173.5 164.5l33 51q134 -75 205.5 -182t71.5 -246t-71.5 -246t-205.5 -182z" />
    <glyph glyph-name="asterisk" unicode="*" horiz-adv-x="430" 
d="M199 522l-103 -73l-27 47l116 53l-116 54l27 46l103 -72l-10 125h52l-10 -125l103 72l27 -46l-116 -54l116 -53l-27 -47l-103 73l10 -125h-52z" />
    <glyph glyph-name="plus" unicode="+" horiz-adv-x="640" 
d="M283 316h-208v72h208v206h74v-206h208v-72h-208v-206h-74v206z" />
    <glyph glyph-name="comma" unicode="," horiz-adv-x="245" 
d="M46 -87q38 14 54 34.5t13 52.5h-36v105h92v-90q0 -61 -27 -92.5t-84 -44.5z" />
    <glyph glyph-name="hyphen" unicode="-" horiz-adv-x="408" 
d="M65 341h278v-81h-278v81z" />
    <glyph glyph-name="hyphen" unicode="&#xad;" horiz-adv-x="408" 
d="M65 341h278v-81h-278v81z" />
    <glyph glyph-name="period" unicode="." horiz-adv-x="245" 
d="M77 105h92v-105h-92v105z" />
    <glyph glyph-name="slash" unicode="/" horiz-adv-x="508" 
d="M443 798h71l-464 -926h-71z" />
    <glyph glyph-name="zero" unicode="0" horiz-adv-x="715" 
d="M359 60q49 0 88.5 23.5t67 63t42 92t14.5 109.5v2q0 57 -15 109.5t-43 92.5t-67.5 64t-88.5 24t-88.5 -23.5t-67 -63t-42.5 -91.5t-15 -110v-2q0 -57 15 -109.5t43 -92.5t68 -64t89 -24zM357 -12q-68 0 -122.5 28.5t-93 78t-59 114.5t-20.5 139v2q0 73 21 139t60 115.5
t93.5 78.5t122.5 29q67 0 121.5 -28.5t93 -78t59 -115t20.5 -138.5v-2q0 -74 -21 -139.5t-59.5 -115t-93.5 -78.5t-122 -29z" />
    <glyph glyph-name="one" unicode="1" horiz-adv-x="358" 
d="M179 623l-132 -41l-19 64l171 59h58v-705h-78v623z" />
    <glyph glyph-name="two" unicode="2" horiz-adv-x="599" 
d="M48 61l254 224q40 36 68 65t45 54.5t25 50t8 50.5q0 31 -11.5 55.5t-30.5 42t-45 27t-54 9.5q-60 0 -103 -30.5t-85 -89.5l-58 42q24 35 49 63t54.5 47t66 29t82.5 10q47 0 87 -15t69 -41.5t45 -62.5t16 -79v-2q0 -38 -10.5 -70.5t-32 -64t-55 -64.5t-79.5 -73l-187 -166
h371v-72h-489v61z" />
    <glyph glyph-name="three" unicode="3" horiz-adv-x="613" 
d="M311 -12q-88 0 -153 34.5t-108 90.5l57 51q41 -50 90.5 -77t114.5 -27q32 0 60 9.5t48.5 27.5t32.5 43t12 56v2q0 33 -14.5 58t-40.5 42t-62 26t-79 9h-45l-16 47l221 249h-342v71h447v-58l-220 -244q46 -4 87.5 -17t73.5 -37t51 -59.5t19 -83.5v-2q0 -47 -18.5 -86
t-50 -66.5t-74 -43t-91.5 -15.5z" />
    <glyph glyph-name="four" unicode="4" horiz-adv-x="671" 
d="M432 232v361l-294 -361h294zM432 166h-369l-20 57l396 482h69v-473h109v-66h-109v-166h-76v166z" />
    <glyph glyph-name="five" unicode="5" horiz-adv-x="612" 
d="M303 -12q-75 0 -138.5 31.5t-111.5 79.5l52 57q46 -45 95.5 -70.5t103.5 -25.5q37 0 68.5 11.5t53.5 32.5t34.5 49.5t12.5 61.5v2q0 33 -13 60t-36 46.5t-55 30t-70 10.5q-45 0 -80.5 -11.5t-66.5 -28.5l-53 35l20 341h403v-73h-334l-15 -224q31 14 62.5 22.5t75.5 8.5
q51 0 95 -14.5t77 -42.5t51.5 -67.5t18.5 -89.5v-2q0 -51 -18.5 -93.5t-51.5 -73t-79 -47t-101 -16.5z" />
    <glyph glyph-name="six" unicode="6" horiz-adv-x="647" 
d="M334 58q39 0 70 12.5t53 34t34 51t12 62.5v2q0 32 -12.5 59.5t-35 47.5t-54 31.5t-69.5 11.5q-39 0 -71.5 -13t-55.5 -34.5t-35.5 -49t-12.5 -56.5v-2q0 -33 13 -62t36.5 -50t56 -33t71.5 -12zM333 -12q-58 0 -104.5 19t-79.5 52q-21 21 -37.5 46t-27.5 57t-17 73t-6 95
v2q0 80 19.5 149.5t57 120.5t91.5 80.5t123 29.5q63 0 112 -21t95 -59l-46 -61q-39 33 -78 51t-87 18t-86 -23t-64.5 -64t-40.5 -97.5t-14 -124.5q14 21 32.5 40.5t43 34t55 23.5t68.5 9q49 0 93 -15t77 -43t52.5 -68t19.5 -89v-2q0 -51 -19.5 -93.5t-53 -73.5t-79.5 -48.5
t-99 -17.5z" />
    <glyph glyph-name="seven" unicode="7" horiz-adv-x="596" 
d="M453 628h-385v72h475v-59l-318 -641h-88z" />
    <glyph glyph-name="eight" unicode="8" horiz-adv-x="630" 
d="M315 59q43 0 77 10.5t57.5 28.5t36 41.5t12.5 50.5v2q0 29 -14.5 53.5t-39 42t-58 27.5t-71.5 10t-71.5 -10t-58.5 -27.5t-39 -42t-14 -53.5v-2q0 -27 12.5 -50.5t36 -41.5t57.5 -28.5t77 -10.5zM315 390q33 0 62.5 9.5t51 26t34 40t12.5 52.5v2q0 26 -12 48t-33.5 38.5
t-51 25.5t-63.5 9t-63.5 -9t-51 -25t-33.5 -38.5t-12 -48.5v-2q0 -29 12.5 -52.5t34 -40t51 -26t62.5 -9.5zM315 -10q-56 0 -104 14.5t-83.5 40.5t-55.5 62.5t-20 80.5v2q0 63 40.5 106t103.5 66q-24 11 -46 26.5t-38.5 35t-26 44.5t-9.5 55v2q0 40 19.5 74t52 59t76 38.5
t91.5 13.5t91.5 -13.5t76 -38.5t52 -59t19.5 -74v-2q0 -30 -9.5 -55t-26 -44.5t-38.5 -35t-46 -26.5q62 -23 103 -66t41 -105v-2q0 -45 -20 -81.5t-55.5 -62.5t-83.5 -40.5t-104 -14.5z" />
    <glyph glyph-name="nine" unicode="9" horiz-adv-x="647" 
d="M316 323q40 0 72.5 13.5t55 35.5t34.5 50.5t12 58.5v2q0 33 -13 62t-36.5 50.5t-56.5 34t-72 12.5t-70.5 -13.5t-53 -36t-33 -52t-11.5 -62.5v-2q0 -33 12.5 -61.5t35 -48.5t54.5 -31.5t70 -11.5zM295 -12q-69 0 -120 24.5t-96 61.5l46 61q43 -38 84 -56.5t88 -18.5
t86 23t66.5 63.5t42 97t13.5 123.5q-29 -46 -77 -79t-121 -33q-54 0 -99 16t-77 45t-50 69t-18 87v2q0 50 18.5 93.5t51.5 75.5t79.5 50.5t102.5 18.5q60 0 105 -19t79 -53q40 -40 63.5 -103t23.5 -168v-2q0 -83 -21 -153t-59.5 -120t-92 -78t-118.5 -28z" />
    <glyph glyph-name="colon" unicode=":" horiz-adv-x="255" 
d="M82 105h92v-105h-92v105zM82 517h92v-105h-92v105z" />
    <glyph glyph-name="semicolon" unicode=";" horiz-adv-x="255" 
d="M51 -87q38 14 54 34.5t13 52.5h-36v105h92v-90q0 -61 -27 -92.5t-84 -44.5zM82 517h92v-105h-92v105z" />
    <glyph glyph-name="semicolon" unicode="&#x37e;" horiz-adv-x="255" 
d="M51 -87q38 14 54 34.5t13 52.5h-36v105h92v-90q0 -61 -27 -92.5t-84 -44.5zM82 517h92v-105h-92v105z" />
    <glyph glyph-name="less" unicode="&#x3c;" horiz-adv-x="640" 
d="M72 319v66l469 233v-77l-385 -188l385 -189v-78z" />
    <glyph glyph-name="equal" unicode="=" horiz-adv-x="640" 
d="M90 272h460v-74h-460v74zM90 506h460v-74h-460v74z" />
    <glyph glyph-name="greater" unicode="&#x3e;" horiz-adv-x="640" 
d="M99 163l385 188l-385 189v78l469 -233v-66l-469 -233v77z" />
    <glyph glyph-name="question" unicode="?" horiz-adv-x="537" 
d="M199 105h92v-105h-92v105zM205 360l5 5q98 2 148.5 40t50.5 101v2q0 27 -10 50.5t-29 41.5t-46 28t-61 10q-56 0 -100 -24.5t-82 -69.5l-51 49q43 52 99 84t136 32q51 0 92 -15t70.5 -41.5t45.5 -62.5t16 -79v-2q0 -47 -16.5 -82.5t-45 -60t-66 -39.5t-80.5 -21l-10 -108
h-51z" />
    <glyph glyph-name="at" unicode="@" horiz-adv-x="980" 
d="M450 133q32 0 62 15t52.5 40t36 57.5t13.5 67.5q0 27 -9 50.5t-25.5 40.5t-39 26.5t-48.5 9.5q-32 0 -61.5 -14t-52 -38.5t-36.5 -57.5t-14 -72q0 -60 34 -92.5t88 -32.5zM499 -162q-96 0 -177.5 34.5t-141.5 94t-93.5 138.5t-33.5 169t34 169.5t93 139t139 94.5t172 35
t171.5 -32.5t138.5 -87t92.5 -126.5t33.5 -150q0 -64 -16.5 -110t-42.5 -76t-60 -44.5t-68 -14.5q-55 0 -90.5 23t-49.5 61q-29 -35 -69 -59.5t-96 -24.5q-37 0 -69.5 13t-57 37t-38.5 57.5t-14 74.5q0 53 20 98.5t53 79t74.5 52.5t83.5 19q29 0 52 -7t41 -18.5t31 -26.5
t22 -31l13 69l67 -9l-40 -227q-4 -21 -5.5 -37t-1.5 -24q0 -38 22 -59.5t63 -21.5q27 0 52 12t44.5 37.5t31.5 64.5t12 92q0 69 -30.5 134t-84 116t-126.5 81.5t-159 30.5t-159.5 -32t-127.5 -87t-84.5 -128.5t-30.5 -156.5q0 -84 30.5 -157t84.5 -127.5t129.5 -86
t165.5 -31.5q75 0 133 17t116 51l16 -27q-58 -35 -122.5 -55t-142.5 -20z" />
    <glyph glyph-name="A" unicode="A" horiz-adv-x="790" 
d="M553 256l-159 357l-160 -357h319zM358 705h74l319 -705h-85l-82 185h-381l-83 -185h-81z" />
    <glyph glyph-name="B" unicode="B" horiz-adv-x="722" 
d="M412 71q80 0 126 33t46 92v2q0 57 -47 88.5t-139 31.5h-221v-247h235zM384 388q72 0 116.5 31.5t44.5 93.5v2q0 52 -40 83t-115 31h-213v-241h207zM99 700h298q60 0 106.5 -16.5t76.5 -45.5q45 -47 45 -112v-2q0 -34 -9.5 -60.5t-25.5 -46t-35.5 -33t-40.5 -22.5
q31 -9 58.5 -23.5t47.5 -34.5t32 -47.5t12 -63.5v-2q0 -45 -18 -80.5t-51.5 -60t-80.5 -37.5t-104 -13h-311v700z" />
    <glyph glyph-name="C" unicode="C" horiz-adv-x="738" 
d="M419 -12q-76 0 -140 28t-111 76.5t-73.5 114.5t-26.5 141v2q0 74 26.5 140t73.5 115.5t112 78t142 28.5q48 0 86.5 -8t71.5 -22.5t61 -35t54 -45.5l-54 -58q-45 42 -96.5 69t-123.5 27q-58 0 -107.5 -22t-86 -61t-57 -91.5t-20.5 -112.5v-2q0 -61 20.5 -113.5t57 -91.5
t86 -61.5t107.5 -22.5q72 0 124 26.5t102 74.5l52 -51q-27 -28 -56.5 -50.5t-63.5 -38.5t-73 -25t-87 -9z" />
    <glyph glyph-name="D" unicode="D" horiz-adv-x="782" 
d="M342 73q66 0 120 21t91.5 58t58 87.5t20.5 108.5v2q0 58 -20.5 108.5t-58 88t-91.5 59t-120 21.5h-164v-554h164zM99 700h243q82 0 150.5 -26.5t118 -73.5t76.5 -110.5t27 -137.5v-2q0 -74 -27 -138t-76.5 -111t-118 -74t-150.5 -27h-243v700z" />
    <glyph glyph-name="E" unicode="E" horiz-adv-x="670" 
d="M99 700h506v-72h-427v-239h382v-72h-382v-245h432v-72h-511v700z" />
    <glyph glyph-name="F" unicode="F" horiz-adv-x="656" 
d="M99 700h503v-73h-424v-250h379v-72h-379v-305h-79v700z" />
    <glyph glyph-name="G" unicode="G" horiz-adv-x="784" 
d="M424 -12q-83 0 -148.5 28t-112 77t-71 114.5t-24.5 140.5v2q0 72 25.5 137.5t71.5 115.5t110.5 79.5t143.5 29.5q44 0 80.5 -6t68 -18t59 -29.5t53.5 -39.5l-51 -60q-20 18 -42 32.5t-47.5 25t-56 16.5t-67.5 6q-58 0 -107 -23t-84 -62t-55 -91.5t-20 -110.5v-2
q0 -63 19.5 -116t55.5 -92t87 -61t115 -22q60 0 113 20.5t89 49.5v174h-213v71h289v-279q-49 -44 -120.5 -75.5t-160.5 -31.5z" />
    <glyph glyph-name="H" unicode="H" horiz-adv-x="760" 
d="M99 700h79v-311h404v311h79v-700h-79v315h-404v-315h-79v700z" />
    <glyph glyph-name="I" unicode="I" horiz-adv-x="291" 
d="M106 700h79v-700h-79v700z" />
    <glyph glyph-name="J" unicode="J" horiz-adv-x="553" 
d="M247 -10q-79 0 -131 35t-85 89l57 49q32 -49 68.5 -74.5t91.5 -25.5q59 0 98 42.5t39 125.5v469h80v-468q0 -62 -17 -108t-47 -76q-60 -58 -154 -58z" />
    <glyph glyph-name="K" unicode="K" horiz-adv-x="719" 
d="M99 700h79v-418l402 418h102l-300 -306l313 -394h-99l-269 339l-149 -151v-188h-79v700z" />
    <glyph glyph-name="L" unicode="L" horiz-adv-x="619" 
d="M99 700h79v-627h394v-73h-473v700z" />
    <glyph glyph-name="M" unicode="M" horiz-adv-x="868" 
d="M99 700h80l255 -382l255 382h80v-700h-79v567l-255 -375h-4l-255 374v-566h-77v700z" />
    <glyph glyph-name="N" unicode="N" horiz-adv-x="790" 
d="M99 700h74l441 -561v561h77v-700h-63l-452 574v-574h-77v700z" />
    <glyph glyph-name="O" unicode="O" horiz-adv-x="850" 
d="M426 61q60 0 110.5 22.5t86.5 61.5t56.5 91t20.5 112v2q0 60 -20.5 112.5t-57.5 91.5t-87.5 62t-110.5 23t-110.5 -22.5t-86.5 -61.5t-56.5 -91t-20.5 -112v-2q0 -60 20.5 -112.5t57.5 -91.5t87.5 -62t110.5 -23zM424 -12q-80 0 -145.5 29t-112.5 78.5t-72.5 115
t-25.5 137.5v2q0 72 26 138t73 115.5t113 79t146 29.5t145.5 -29t112.5 -78.5t72.5 -115t25.5 -137.5q1 -1 0 -2q0 -72 -26 -138t-73 -115.5t-113 -79t-146 -29.5z" />
    <glyph glyph-name="P" unicode="P" horiz-adv-x="668" 
d="M351 319q43 0 78.5 11t61 31.5t39 48.5t13.5 63v2q0 75 -51.5 113.5t-136.5 38.5h-177v-308h173zM99 700h262q59 0 107.5 -15.5t83 -44t53 -69.5t18.5 -93v-2q0 -57 -22 -99.5t-59.5 -71.5t-87.5 -43.5t-106 -14.5h-170v-247h-79v700z" />
    <glyph glyph-name="Q" unicode="Q" horiz-adv-x="850" 
d="M426 61q47 0 88 14t73 39l-130 111l53 59l129 -117q29 37 45 83t16 98v2q0 60 -20.5 112.5t-57.5 91.5t-87.5 62t-110.5 23t-110.5 -22.5t-86.5 -61.5t-56.5 -91t-20.5 -112v-2q0 -60 20.5 -112.5t57.5 -91.5t87.5 -62t110.5 -23zM645 63q-45 -35 -100 -55t-121 -20
q-80 0 -145.5 29t-112.5 78.5t-72.5 115t-25.5 137.5v2q0 72 26 138t73 115.5t113 79t146 29.5t145.5 -29t112.5 -78.5t72.5 -115t25.5 -137.5q1 -1 0 -2q0 -66 -21.5 -126.5t-62.5 -108.5l93 -77l-54 -59z" />
    <glyph glyph-name="R" unicode="R" horiz-adv-x="723" 
d="M393 343q39 0 72 10t57 28.5t37.5 45t13.5 60.5v2q0 65 -47 101.5t-132 36.5h-216v-284h215zM99 700h301q65 0 115.5 -18.5t83.5 -51.5q26 -26 40 -61t14 -77v-2q0 -44 -14 -78.5t-39.5 -60t-60.5 -42t-76 -23.5l215 -286h-97l-203 272h-2h-198v-272h-79v700z" />
    <glyph glyph-name="S" unicode="S" horiz-adv-x="640" 
d="M339 -10q-84 0 -153.5 27.5t-132.5 84.5l49 58q55 -50 111 -74.5t129 -24.5q71 0 113.5 33.5t42.5 85.5v2q0 24 -8 43.5t-28 35.5t-55.5 29t-90.5 25q-60 13 -104.5 30t-73.5 41t-43 56t-14 75v2q0 41 17 76t48 60.5t73 40t92 14.5q77 0 134.5 -21.5t111.5 -64.5l-46 -61
q-49 40 -98.5 58t-103.5 18q-69 0 -109 -32.5t-40 -80.5v-2q0 -25 8 -44.5t29 -36t58 -30t95 -25.5q117 -26 172.5 -72t55.5 -126v-2q0 -45 -18 -81.5t-49.5 -62.5t-75.5 -40t-96 -14z" />
    <glyph glyph-name="T" unicode="T" horiz-adv-x="648" 
d="M284 627h-235v73h550v-73h-235v-627h-80v627z" />
    <glyph glyph-name="U" unicode="U" horiz-adv-x="759" 
d="M379 -11q-65 0 -118.5 19.5t-92 58t-59.5 95.5t-21 131v407h79v-402q0 -114 56.5 -175t157.5 -61q97 0 154 58t57 173v407h79v-401q0 -77 -21 -135t-59.5 -97t-92 -58.5t-119.5 -19.5z" />
    <glyph glyph-name="V" unicode="V" horiz-adv-x="750" 
d="M39 700h88l249 -603l250 603h85l-301 -705h-70z" />
    <glyph glyph-name="W" unicode="W" horiz-adv-x="1107" 
d="M45 700h86l200 -583l192 585h65l192 -585l200 583h83l-250 -705h-67l-192 568l-193 -568h-66z" />
    <glyph glyph-name="X" unicode="X" horiz-adv-x="725" 
d="M315 357l-259 343h93l215 -286l213 286h92l-259 -342l269 -358h-94l-224 301l-224 -301h-91z" />
    <glyph glyph-name="Y" unicode="Y" horiz-adv-x="716" 
d="M318 277l-291 423h96l236 -350l238 350h92l-291 -422v-278h-80v277z" />
    <glyph glyph-name="Z" unicode="Z" horiz-adv-x="693" 
d="M67 53l453 576h-438v71h546v-53l-454 -576h454v-71h-561v53z" />
    <glyph glyph-name="bracketleft" unicode="[" horiz-adv-x="439" 
d="M94 700h286v-60h-213v-710h213v-60h-286v830z" />
    <glyph glyph-name="backslash" unicode="\" horiz-adv-x="508" 
d="M-6 798h71l464 -926h-71z" />
    <glyph glyph-name="bracketright" unicode="]" horiz-adv-x="439" 
d="M59 -70h214v710h-214v60h286v-830h-286v60z" />
    <glyph glyph-name="asciicircum" unicode="^" 
d="M220 702h60l155 -209h-68l-118 154l-118 -154h-66z" />
    <glyph glyph-name="underscore" unicode="_" horiz-adv-x="600" 
d="M-2 -97h604v-63h-604v63z" />
    <glyph glyph-name="grave" unicode="`" 
d="M144 703l80 37l95 -145h-62z" />
    <glyph glyph-name="a" unicode="a" horiz-adv-x="579" 
d="M255 51q36 0 67 10t54.5 28.5t37 44t13.5 56.5v48q-29 8 -66 15t-85 7q-72 0 -111.5 -28.5t-39.5 -75.5v-2q0 -24 10.5 -43.5t28.5 -32.5t41.5 -20t49.5 -7zM240 -11q-36 0 -71 10t-62 30.5t-43.5 50.5t-16.5 70v2q0 42 16 73.5t45.5 52.5t70 32t89.5 11q50 0 86.5 -6
t71.5 -16v16q0 69 -40 104.5t-113 35.5q-46 0 -83.5 -10t-73.5 -27l-23 63q43 20 87 32t101 12q110 0 167 -57q54 -54 54 -152v-316h-76v77q-27 -35 -72.5 -61.5t-113.5 -26.5z" />
    <glyph glyph-name="b" unicode="b" horiz-adv-x="664" 
d="M347 58q37 0 70.5 13.5t58 39t39 62.5t14.5 84v2q0 46 -14.5 83t-39.5 63t-58 40t-70 14q-36 0 -69.5 -14.5t-60 -41t-42 -63t-15.5 -80.5v-2q0 -45 15.5 -82t42 -63t60 -40.5t69.5 -14.5zM361 -11q-36 0 -66 9t-54 24t-43.5 35t-34.5 42v-99h-77v730h77v-317
q16 23 35.5 44t43.5 36.5t53.5 25t65.5 9.5q46 0 90.5 -18t79.5 -52.5t56 -84t21 -113.5v-2q0 -63 -21 -113t-55.5 -84.5t-79 -53t-91.5 -18.5z" />
    <glyph glyph-name="c" unicode="c" horiz-adv-x="571" 
d="M319 -12q-57 0 -105.5 21.5t-84 58t-55.5 85.5t-20 103v2q0 55 20 104t55.5 86t84 58.5t105.5 21.5q37 0 67 -7t55 -19.5t46 -29.5t39 -36l-51 -54q-31 32 -67.5 55t-89.5 23q-39 0 -73 -15.5t-59 -42.5t-39 -63.5t-14 -78.5v-2q0 -42 14.5 -78.5t40 -64t60 -43
t75.5 -15.5q50 0 88.5 22t69.5 55l49 -46q-39 -44 -88.5 -72t-122.5 -28z" />
    <glyph glyph-name="d" unicode="d" horiz-adv-x="664" 
d="M317 58q36 0 69.5 14.5t60 41t42 63t15.5 81.5v2q0 45 -15.5 81.5t-42 62.5t-60 40.5t-69.5 14.5q-38 0 -71 -13.5t-57.5 -39t-39 -62.5t-14.5 -84v-2q0 -46 14.5 -83t39.5 -63t58 -40t70 -14zM303 -11q-47 0 -91 18t-79 52.5t-56 84t-21 113.5v2q0 63 21 113t56 84.5
t79 53t91 18.5q36 0 66 -9t54 -24t43.5 -35t34.5 -42v312h77v-730h-77v104q-16 -23 -35.5 -44t-43.5 -37t-53.5 -25t-65.5 -9z" />
    <glyph glyph-name="e" unicode="e" horiz-adv-x="592" 
d="M465 289q-3 35 -15 66.5t-32.5 55.5t-50 38t-67.5 14q-33 0 -62 -13t-51 -36.5t-36.5 -55.5t-18.5 -69h333zM132 227q4 -41 20 -73t41 -54t56 -33.5t65 -11.5q54 0 92.5 20t70.5 53l48 -43q-39 -44 -89 -70.5t-124 -26.5q-53 0 -100 19.5t-82 55t-55.5 85.5t-20.5 110
q0 56 18.5 105.5t51.5 86t78.5 57.5t99.5 21q57 0 102 -21.5t76 -58.5t47 -87t16 -107v-11.5t-1 -15.5h-410z" />
    <glyph glyph-name="f" unicode="f" horiz-adv-x="367" 
d="M115 449h-71v67h71v45q0 88 45 133q40 40 111 40q27 0 46.5 -3t38.5 -10v-67q-21 6 -38 9.5t-37 3.5q-90 0 -90 -110v-42h164v-66h-163v-449h-77v449z" />
    <glyph glyph-name="g" unicode="g" horiz-adv-x="664" 
d="M314 108q37 0 71 12.5t60.5 36t42.5 55.5t16 71v2q0 40 -16 72t-42.5 55t-60.5 35.5t-71 12.5t-69.5 -12.5t-57 -35t-38.5 -54.5t-14 -72v-2q0 -39 14.5 -71.5t39 -55.5t57 -36t68.5 -13zM315 -162q-65 0 -124 18t-111 54l35 60q45 -32 94 -49t105 -17q86 0 137 46.5
t51 137.5v61q-34 -45 -83 -77t-120 -32q-47 0 -90.5 17t-77.5 48.5t-54.5 76t-20.5 100.5v2q0 57 20.5 102t54.5 76.5t78 48.5t90 17q36 0 66.5 -8.5t55 -22.5t44.5 -33t36 -40v93h77v-427q0 -60 -17 -105.5t-49 -77.5q-35 -35 -85 -52t-112 -17z" />
    <glyph glyph-name="h" unicode="h" horiz-adv-x="616" 
d="M86 730h77v-303q26 42 68 71.5t109 29.5q47 0 83.5 -15t62 -42.5t39 -65.5t13.5 -84v-321h-77v302q0 72 -37 114t-106 42q-33 0 -61.5 -11.5t-49.5 -33t-32.5 -51.5t-11.5 -66v-296h-77v730z" />
    <glyph glyph-name="i" unicode="i" horiz-adv-x="263" 
d="M93 517h77v-517h-77v517zM88 715h88v-85h-88v85z" />
    <glyph glyph-name="j" unicode="j" horiz-adv-x="263" 
d="M44 -163q-14 0 -24.5 1t-23.5 4v63q9 -2 19.5 -2.5t18.5 -0.5q26 0 42.5 16.5t16.5 52.5v546h77v-547q0 -69 -33.5 -101t-92.5 -32zM88 715h88v-85h-88v85z" />
    <glyph glyph-name="k" unicode="k" horiz-adv-x="569" 
d="M86 730h77v-504l279 291h96l-217 -222l224 -295h-92l-185 241l-105 -106v-135h-77v730z" />
    <glyph glyph-name="l" unicode="l" horiz-adv-x="263" 
d="M93 730h77v-730h-77v730z" />
    <glyph glyph-name="m" unicode="m" horiz-adv-x="951" 
d="M86 517h77v-87q13 19 28.5 37t35.5 31.5t45 21.5t58 8q63 0 104 -29.5t62 -73.5q14 21 31.5 40t39.5 33t49.5 22t61.5 8q90 0 141 -55.5t51 -152.5v-320h-77v302q0 75 -35.5 115.5t-98.5 40.5q-29 0 -55 -10.5t-45.5 -31t-31 -50.5t-11.5 -68v-298h-76v304
q0 73 -35.5 113.5t-97.5 40.5q-31 0 -57 -12t-45.5 -34t-30.5 -51.5t-11 -65.5v-295h-77v517z" />
    <glyph glyph-name="n" unicode="n" horiz-adv-x="616" 
d="M86 517h77v-90q26 42 68 71.5t109 29.5q47 0 83.5 -15t62 -42.5t39 -65.5t13.5 -84v-321h-77v302q0 72 -37 114t-106 42q-33 0 -61.5 -11.5t-49.5 -33t-32.5 -51.5t-11.5 -66v-296h-77v517z" />
    <glyph glyph-name="o" unicode="o" horiz-adv-x="646" 
d="M324 57q42 0 77 16t60 43t39 63t14 77v2q0 42 -14.5 78.5t-40.5 64t-61 43.5t-76 16q-42 0 -77 -16t-59.5 -43t-38.5 -63.5t-14 -77.5v-2q0 -42 14.5 -78.5t40 -63.5t60.5 -43t76 -16zM322 -12q-58 0 -107 21.5t-85 58t-56 85t-20 103.5v2q0 55 20 104t56 86t85.5 58.5
t108.5 21.5q58 0 107.5 -21.5t85.5 -58t56 -85t20 -103.5v-2q0 -55 -20.5 -104t-56.5 -86t-86 -58.5t-108 -21.5z" />
    <glyph glyph-name="p" unicode="p" horiz-adv-x="664" 
d="M347 58q37 0 70.5 13.5t58 39t39 62.5t14.5 84v2q0 46 -14.5 83t-39.5 63t-58 40t-70 14q-36 0 -69.5 -14.5t-60 -41t-42 -63t-15.5 -80.5v-2q0 -45 15.5 -82t42 -63t60 -40.5t69.5 -14.5zM86 517h77v-104q16 23 35.5 44t43.5 36.5t53.5 25t65.5 9.5q46 0 90.5 -18
t79.5 -52.5t56 -84t21 -113.5v-2q0 -63 -21 -113t-55.5 -84.5t-79 -53t-91.5 -18.5q-36 0 -66 9t-54 24t-43.5 35t-34.5 42v-259h-77v677z" />
    <glyph glyph-name="q" unicode="q" horiz-adv-x="664" 
d="M317 58q36 0 69.5 14.5t60 41t42 63t15.5 81.5v2q0 45 -15.5 81.5t-42 62.5t-60 40.5t-69.5 14.5q-38 0 -71 -13.5t-57.5 -39t-39 -62.5t-14.5 -84v-2q0 -46 14.5 -83t39.5 -63t58 -40t70 -14zM501 104q-16 -23 -35.5 -44t-43.5 -37t-53.5 -25t-65.5 -9q-47 0 -91 18
t-79 52.5t-56 84t-21 113.5v2q0 63 21 113t56 84.5t79 53t91 18.5q36 0 66 -9t54 -24t43.5 -35t34.5 -42v99h77v-677h-77v264z" />
    <glyph glyph-name="r" unicode="r" horiz-adv-x="405" 
d="M86 517h77v-135q14 32 35 59t48 46.5t59 29.5t69 9v-83h-6q-42 0 -79.5 -15t-65.5 -45t-44 -74.5t-16 -102.5v-206h-77v517z" />
    <glyph glyph-name="s" unicode="s" horiz-adv-x="498" 
d="M257 -10q-56 0 -113 20.5t-101 55.5l39 55q42 -32 87.5 -49t91.5 -17q47 0 77 22t30 60v2q0 19 -10.5 33t-28.5 24.5t-41.5 18.5t-48.5 15q-30 9 -60.5 19.5t-55 26.5t-40 40t-15.5 60v2q0 33 13 60.5t36.5 47t56 30t70.5 10.5q48 0 97 -15.5t89 -41.5l-35 -58
q-36 23 -75.5 36.5t-77.5 13.5q-46 0 -73 -21.5t-27 -53.5v-2q0 -18 11 -31.5t29.5 -23.5t42.5 -18t50 -16q30 -9 59.5 -20t53.5 -28t38.5 -41t14.5 -59v-2q0 -37 -14.5 -65.5t-39 -48.5t-58 -30.5t-72.5 -10.5z" />
    <glyph glyph-name="t" unicode="t" horiz-adv-x="404" 
d="M259 -9q-31 0 -58 8t-46.5 25.5t-30.5 45.5t-11 67v312h-72v68h72v156h77v-156h164v-68h-164v-302q0 -48 24 -67t63 -19q20 0 37.5 4t37.5 14v-66q-20 -11 -42.5 -16.5t-50.5 -5.5z" />
    <glyph glyph-name="u" unicode="u" horiz-adv-x="616" 
d="M276 -11q-47 0 -83.5 15t-62 42.5t-39 65.5t-13.5 84v321h77v-302q0 -72 37 -114t106 -42q33 0 61.5 11.5t49 33t32.5 51.5t12 66v296h76v-517h-76v90q-26 -42 -68 -71.5t-109 -29.5z" />
    <glyph glyph-name="v" unicode="v" horiz-adv-x="587" 
d="M35 517h85l174 -429l175 429h83l-225 -521h-68z" />
    <glyph glyph-name="w" unicode="w" horiz-adv-x="861" 
d="M42 517h82l136 -415l139 417h64l140 -417l136 415h80l-182 -521h-67l-139 408l-140 -408h-68z" />
    <glyph glyph-name="x" unicode="x" horiz-adv-x="574" 
d="M242 263l-195 254h88l153 -200l153 200h86l-196 -252l204 -265h-89l-160 211l-161 -211h-86z" />
    <glyph glyph-name="y" unicode="y" horiz-adv-x="591" 
d="M166 -163q-32 0 -58 6.5t-52 19.5l26 61q19 -10 37.5 -14.5t43.5 -4.5q35 0 59 21t47 76l-235 515h85l188 -431l166 431h82l-217 -534q-33 -80 -73.5 -113t-98.5 -33z" />
    <glyph glyph-name="z" unicode="z" horiz-adv-x="556" 
d="M56 49l343 403h-331v65h436v-49l-344 -403h344v-65h-448v49z" />
    <glyph glyph-name="braceleft" unicode="{" horiz-adv-x="483" 
d="M416 -141q-68 12 -110 30.5t-66 43.5t-32.5 57t-8.5 71v16t0.5 21t0.5 22v17q0 58 -25.5 89t-92.5 31h-26v60h26q67 0 92.5 30.5t25.5 89.5v16.5t-0.5 22t-0.5 21.5v16q0 39 8.5 71t32.5 57t66 43.5t110 30.5l12 -51q-53 -14 -83.5 -28t-47 -32.5t-21 -42.5t-4.5 -58
q0 -15 0.5 -37t0.5 -38q0 -63 -28 -94.5t-76 -46.5q25 -8 44.5 -19.5t32.5 -28t20 -39.5t7 -54q0 -16 -0.5 -38t-0.5 -37q0 -34 4.5 -58t21 -42.5t47 -33t83.5 -27.5z" />
    <glyph glyph-name="bar" unicode="|" horiz-adv-x="303" 
d="M119 798h65v-926h-65v926z" />
    <glyph glyph-name="braceright" unicode="}" horiz-adv-x="483" 
d="M54 -90q53 13 84 27.5t47.5 33t21 42.5t4.5 58q0 15 -0.5 37t-0.5 38q0 63 28 94.5t76 46.5q-50 16 -77 47t-27 94q0 16 0.5 38t0.5 37q0 34 -4.5 58t-21 42.5t-47.5 32.5t-84 28l13 51q67 -12 109.5 -30.5t66.5 -43.5t32.5 -57t8.5 -71v-16t-0.5 -21.5t-0.5 -22v-16.5
q0 -59 25 -89.5t92 -30.5h26v-60h-26q-67 0 -92 -30.5t-25 -89.5v-17t0.5 -22t0.5 -21v-16q0 -39 -8.5 -71t-32.5 -57t-66.5 -43.5t-109.5 -30.5z" />
    <glyph glyph-name="asciitilde" unicode="~" horiz-adv-x="473" 
d="M73 250q15 57 37 81.5t58 24.5q16 0 34.5 -6.5t36 -14t34 -14t29.5 -6.5q20 0 30.5 11t21.5 39l46 -13q-15 -57 -36.5 -81.5t-57.5 -24.5q-17 0 -35 6.5t-36 14t-34 14t-29 6.5q-20 0 -30.5 -11t-21.5 -39z" />
    <glyph glyph-name="nonbreakingspace" unicode="&#xa0;" horiz-adv-x="300" 
 />
    <glyph glyph-name="exclamdown" unicode="&#xa1;" horiz-adv-x="271" 
d="M91 57l23 445h43l24 -445v-57h-90v57zM90 700h92v-105h-92v105z" />
    <glyph glyph-name="cent" unicode="&#xa2;" horiz-adv-x="581" 
d="M325 556h-4q-39 0 -73 -15.5t-58.5 -42.5t-39 -63t-14.5 -78v-2q0 -63 31.5 -113t82.5 -73zM234 100q-39 14 -71.5 39t-55.5 58t-36 72.5t-13 83.5v2q0 55 20.5 104t56 86t84 58.5t104.5 21.5h13l15 81h65l-18 -90q42 -11 74 -33.5t58 -50.5l-50 -52q-21 22 -45 40
t-53 27l-77 -392q5 -1 10.5 -1h10.5q50 0 89 22t70 55l48 -45q-39 -45 -89 -73t-122 -28h-13.5t-13.5 1l-18 -92h-65z" />
    <glyph glyph-name="sterling" unicode="&#xa3;" horiz-adv-x="644" 
d="M67 46l84 21v228h-84v69h84v108q0 56 16 101.5t47 76.5q29 29 68.5 44.5t89.5 15.5q79 0 129 -31t85 -77l-61 -48q-29 37 -64 60t-90 23q-59 0 -98 -37q-43 -45 -43 -128v-108h279v-69h-279v-225h355v-70h-518v46z" />
    <glyph glyph-name="currency" unicode="&#xa4;" horiz-adv-x="720" 
d="M430 -12q-53 0 -99 18t-82.5 51t-62.5 78.5t-39 101.5h-91v63h81q-2 12 -2 23.5v24.5v2q0 15 1 30t3 28h-83v62h94q14 52 40 96.5t61.5 77t79.5 50.5t94 18q44 0 80 -10.5t65 -28.5t52.5 -43t43.5 -55l-60 -43q-19 26 -38 46.5t-41 34.5t-47.5 21t-57.5 7
q-67 0 -117.5 -47.5t-73.5 -123.5h257v-62h-270q-2 -12 -3 -27t-1 -29v-2q0 -14 0.5 -26t1.5 -24h272v-63h-259q23 -81 76 -129.5t128 -48.5q59 0 100.5 31t77.5 84l57 -40q-21 -31 -44.5 -58t-52.5 -46.5t-64 -30.5t-77 -11z" />
    <glyph glyph-name="yen" unicode="&#xa5;" horiz-adv-x="686" 
d="M305 116h-205v62h205v88h-205v62h181l-254 372h94l223 -342l225 342h90l-255 -372h182v-62h-205v-88h205v-62h-205v-116h-76v116z" />
    <glyph glyph-name="section" unicode="&#xa7;" horiz-adv-x="632" 
d="M387 263q49 0 79 20.5t30 48.5v2q0 12 -6.5 23.5t-23 22t-44 21t-68.5 20.5q-37 9 -63 12.5t-46 3.5q-49 0 -79 -20.5t-30 -48.5v-2q0 -12 6.5 -23.5t23 -22t44 -21t68.5 -20.5q36 -9 62.5 -12.5t46.5 -3.5zM328 -10q-70 0 -128.5 26t-100.5 69l50 48q35 -34 80.5 -55.5
t100.5 -21.5q53 0 78 19t25 47v2q0 14 -8 26t-27 23t-50.5 21.5t-77.5 21.5q-57 13 -96.5 27.5t-64.5 31.5t-36 37t-11 46v2q0 46 36.5 75t95.5 39q-34 17 -54 43t-20 58v2q0 60 50 96.5t134 36.5q70 0 128.5 -26t100.5 -69l-50 -48q-35 34 -80.5 55.5t-100.5 21.5
q-53 0 -78 -18.5t-25 -47.5v-2q0 -14 8 -26t26.5 -23t50 -21.5t78.5 -21.5q57 -14 96.5 -28t64.5 -30.5t36 -37t11 -46.5v-2q0 -45 -36.5 -74.5t-95.5 -39.5q34 -17 54 -43t20 -58v-2q0 -60 -50 -96.5t-134 -36.5z" />
    <glyph glyph-name="dieresis" unicode="&#xa8;" 
d="M117 690h90v-95h-90v95zM293 690h90v-95h-90v95z" />
    <glyph glyph-name="copyright" unicode="&#xa9;" horiz-adv-x="830" 
d="M419 163q-40 0 -74 15t-59 41t-39 61t-14 74v2q0 39 14 73.5t39.5 61t59.5 41.5t75 15q51 0 83.5 -17t60.5 -43l-37 -40q-22 21 -48.5 35.5t-59.5 14.5q-28 0 -52 -11t-41.5 -30.5t-27.5 -45t-10 -53.5v-2q0 -29 10 -54.5t28 -45t42 -30.5t52 -11q35 0 60 13.5t50 36.5
l36 -35q-29 -30 -63 -48t-85 -18zM414 19q70 0 130.5 26.5t105 71.5t69.5 105t25 128v2q0 68 -25 128t-69 104.5t-104 70.5t-130 26q-71 0 -131 -26.5t-104.5 -71.5t-69.5 -105t-25 -128v-2q0 -68 25 -128t69 -104.5t104 -70.5t130 -26zM414 -12q-76 0 -142 28.5
t-114.5 77.5t-76.5 114.5t-28 139.5v2q0 74 28 139.5t77 115t115.5 78.5t142.5 29t142 -28.5t114.5 -77.5t76.5 -114.5t28 -139.5v-2q0 -74 -28 -139.5t-77 -115t-115.5 -78.5t-142.5 -29z" />
    <glyph glyph-name="ordfeminine" unicode="&#xaa;" horiz-adv-x="390" 
d="M177 450q35 0 61 19t26 51v24q-15 5 -33.5 8t-42.5 3q-35 0 -55 -15t-20 -38v-2q0 -24 19 -37t45 -13zM58 336h260v-47h-260v47zM168 408q-20 0 -39 5.5t-34 17t-24.5 28t-9.5 39.5v2q0 45 34.5 69t88.5 24q26 0 44.5 -3t35.5 -8v5q0 35 -20.5 53t-57.5 18
q-23 0 -43.5 -6t-42.5 -16l-15 42q26 11 50 18t56 7q59 0 93 -32q29 -29 29 -84v-173h-49v38q-17 -20 -40.5 -32t-55.5 -12z" />
    <glyph glyph-name="guillemotleft" unicode="&#xab;" horiz-adv-x="550" 
d="M48 255v8l162 213l59 -33l-135 -183l135 -185l-59 -34zM271 255v8l162 213l58 -33l-135 -183l135 -185l-58 -34z" />
    <glyph glyph-name="registered" unicode="&#xae;" horiz-adv-x="830" 
d="M434 364q39 0 63.5 17t24.5 49v2q0 29 -22.5 46.5t-62.5 17.5h-109v-132h106zM273 546h166q35 0 63.5 -10.5t46.5 -28.5q14 -13 22 -31t8 -41v-2q0 -45 -27 -72t-69 -37l115 -149h-68l-107 140h-2h-93v-140h-55v371zM414 19q70 0 130.5 26.5t105 71.5t69.5 105t25 128v2
q0 68 -25 128t-69 104.5t-104 70.5t-130 26q-71 0 -131 -26.5t-104.5 -71.5t-69.5 -105t-25 -128v-2q0 -68 25 -128t69 -104.5t104 -70.5t130 -26zM414 -12q-76 0 -142 28.5t-114.5 77.5t-76.5 114.5t-28 139.5v2q0 74 28 139.5t77 115t115.5 78.5t142.5 29t142 -28.5
t114.5 -77.5t76.5 -114.5t28 -139.5v-2q0 -74 -28 -139.5t-77 -115t-115.5 -78.5t-142.5 -29z" />
    <glyph glyph-name="macron" unicode="&#xaf;" 
d="M92 667h316v-67h-316v67z" />
    <glyph glyph-name="macron" unicode="&#x2c9;" 
d="M92 667h316v-67h-316v67z" />
    <glyph glyph-name="degree" unicode="&#xb0;" horiz-adv-x="458" 
d="M229 452q21 0 39.5 8.5t31.5 22t20.5 31.5t7.5 38v2q0 19 -7.5 37.5t-20.5 32t-31.5 22t-39.5 8.5t-39.5 -8.5t-31.5 -22t-20.5 -32t-7.5 -37.5v-2q0 -20 7.5 -38t20.5 -31.5t31.5 -22t39.5 -8.5zM229 400q-31 0 -59.5 12.5t-50 33.5t-34.5 48.5t-13 57.5v2q0 31 13 58.5
t34.5 48.5t50 33t59.5 12t59 -12t50 -33t35 -48.5t13 -58.5v-2q0 -30 -13 -57.5t-35 -48.5t-50 -33.5t-59 -12.5z" />
    <glyph glyph-name="plusminus" unicode="&#xb1;" horiz-adv-x="604" 
d="M306 -12q-85 0 -152 35.5t-111 90.5l58 50q38 -48 89 -76t118 -28q34 0 63 9t50 26t33 41t12 54v2q0 60 -49 93.5t-138 33.5h-72v68h74q36 0 66.5 9t52.5 25.5t34.5 40.5t12.5 54v2q0 53 -40.5 87.5t-109.5 34.5q-59 0 -102 -26t-79 -74l-58 42q42 59 100 94.5t141 35.5
q50 0 92 -14t72 -39t47 -59.5t17 -74.5v-2q0 -35 -10.5 -61.5t-27.5 -46t-39 -33.5t-45 -23q30 -10 56 -24.5t44.5 -35t29.5 -47.5t11 -60v-2q0 -42 -17.5 -79t-49 -64t-75.5 -43t-98 -16z" />
    <glyph glyph-name="acute" unicode="&#xb4;" 
d="M276 740l80 -37l-113 -108h-62z" />
    <glyph glyph-name="mu" unicode="&#xb5;" horiz-adv-x="850" 
d="M426 61q60 0 110.5 22.5t86.5 61.5t56.5 91t20.5 112v2q0 60 -20.5 112.5t-57.5 91.5t-87.5 62t-110.5 23t-110.5 -22.5t-86.5 -61.5t-56.5 -91t-20.5 -112v-2q0 -60 20.5 -112.5t57.5 -91.5t87.5 -62t110.5 -23zM577 22q-70 -34 -153 -34q-80 0 -145.5 29t-112.5 78.5
t-72.5 115t-25.5 137.5v2q0 72 26 138t73 115.5t113 79t146 29.5t145.5 -29t112.5 -78.5t72.5 -115t25.5 -137.5q1 -1 0 -2q0 -83 -33.5 -156.5t-95.5 -124.5l172 -164v-6h-116z" />
    <glyph glyph-name="mu" unicode="&#x3bc;" horiz-adv-x="850" 
d="M426 61q60 0 110.5 22.5t86.5 61.5t56.5 91t20.5 112v2q0 60 -20.5 112.5t-57.5 91.5t-87.5 62t-110.5 23t-110.5 -22.5t-86.5 -61.5t-56.5 -91t-20.5 -112v-2q0 -60 20.5 -112.5t57.5 -91.5t87.5 -62t110.5 -23zM577 22q-70 -34 -153 -34q-80 0 -145.5 29t-112.5 78.5
t-72.5 115t-25.5 137.5v2q0 72 26 138t73 115.5t113 79t146 29.5t145.5 -29t112.5 -78.5t72.5 -115t25.5 -137.5q1 -1 0 -2q0 -83 -33.5 -156.5t-95.5 -124.5l172 -164v-6h-116z" />
    <glyph glyph-name="paragraph" unicode="&#xb6;" horiz-adv-x="510" 
d="M338 264h-11q-59 0 -110 14t-88.5 42t-59 68t-21.5 93v2q0 51 19.5 91.5t54.5 68t83.5 42.5t106.5 15h106v-700h-80v264z" />
    <glyph glyph-name="periodcentered" unicode="&#xb7;" horiz-adv-x="245" 
d="M77 353h92v-105h-92v105z" />
    <glyph glyph-name="periodcentered" unicode="&#x2219;" horiz-adv-x="245" 
d="M77 353h92v-105h-92v105z" />
    <glyph glyph-name="cedilla" unicode="&#xb8;" 
d="M150 -121l90 131h61l-76 -165z" />
    <glyph glyph-name="ordmasculine" unicode="&#xba;" horiz-adv-x="390" 
d="M196 455q42 0 67 29t25 70v2q0 21 -7 39.5t-19.5 32t-30 21.5t-37.5 8q-42 0 -67 -29t-25 -70v-2q0 -42 26.5 -71.5t67.5 -29.5zM51 336h288v-47h-288v47zM194 407q-32 0 -58.5 11.5t-46 32t-30.5 47t-11 56.5v2q0 30 11 57.5t31 47.5t47 32t59 12q31 0 58 -11.5
t46.5 -32t30.5 -47t11 -56.5v-2q0 -30 -11 -57.5t-31 -47.5t-47 -32t-59 -12z" />
    <glyph glyph-name="guillemotright" unicode="&#xbb;" horiz-adv-x="550" 
d="M59 74l135 184l-135 184l58 34l162 -213v-8l-162 -214zM281 74l135 184l-135 184l59 34l162 -213v-8l-162 -214z" />
    <glyph glyph-name="questiondown" unicode="&#xbf;" horiz-adv-x="537" 
d="M272 -9q-51 0 -92.5 15t-70.5 41.5t-45 62.5t-16 79v2q0 47 16.5 82.5t45 60t66 39.5t80.5 21l9 108h51l16 -162l-5 -5q-98 -2 -148.5 -40t-50.5 -101v-2q0 -27 10 -50.5t29 -41.5t46 -28t61 -10q55 0 99 24.5t82 69.5l51 -49q-43 -52 -98.5 -84t-135.5 -32zM246 700h92
v-105h-92v105z" />
    <glyph glyph-name="Agrave" unicode="&#xc0;" horiz-adv-x="790" 
d="M250 870l80 37l95 -145h-62zM553 256l-159 357l-160 -357h319zM358 705h74l319 -705h-85l-82 185h-381l-83 -185h-81z" />
    <glyph glyph-name="Aacute" unicode="&#xc1;" horiz-adv-x="790" 
d="M460 907l80 -37l-113 -108h-62zM553 256l-159 357l-160 -357h319zM358 705h74l319 -705h-85l-82 185h-381l-83 -185h-81z" />
    <glyph glyph-name="Acircumflex" unicode="&#xc2;" horiz-adv-x="790" 
d="M361 890h68l106 -131h-66l-75 67l-75 -67h-64zM553 256l-159 357l-160 -357h319zM358 705h74l319 -705h-85l-82 185h-381l-83 -185h-81z" />
    <glyph glyph-name="Atilde" unicode="&#xc3;" horiz-adv-x="790" 
d="M231 766q15 57 37 81t58 24q17 0 35 -6.5t36 -14t34 -13.5t29 -6q20 0 30.5 11t21.5 38l47 -13q-15 -57 -37 -81t-58 -24q-17 0 -35 6t-36 13.5t-34 14t-29 6.5q-20 0 -30.5 -11t-21.5 -38zM553 256l-159 357l-160 -357h319zM358 705h74l319 -705h-85l-82 185h-381
l-83 -185h-81z" />
    <glyph glyph-name="Adieresis" unicode="&#xc4;" horiz-adv-x="790" 
d="M262 857h90v-95h-90v95zM438 857h90v-95h-90v95zM553 256l-159 357l-160 -357h319zM358 705h74l319 -705h-85l-82 185h-381l-83 -185h-81z" />
    <glyph glyph-name="Aring" unicode="&#xc5;" horiz-adv-x="790" 
d="M553 256l-159 357l-160 -357h319zM395 705q25 0 43.5 18t18.5 43v2q0 25 -18 43t-44 18t-44 -18t-18 -43v-2q0 -25 18.5 -43t43.5 -18zM346 680q-24 13 -39.5 35.5t-15.5 50.5v2q0 20 8.5 38t23 31.5t33 21.5t39.5 8t39.5 -8t33 -21.5t23 -31.5t8.5 -38v-2
q0 -28 -15.5 -50.5t-39.5 -35.5l307 -680h-85l-82 185h-381l-83 -185h-81z" />
    <glyph glyph-name="AE" unicode="&#xc6;" horiz-adv-x="1045" 
d="M491 256v374h-24l-218 -374h242zM428 700h552v-72h-409v-239h364v-72h-364v-245h414v-72h-494v185h-282l-109 -185h-83z" />
    <glyph glyph-name="Ccedilla" unicode="&#xc7;" horiz-adv-x="738" 
d="M294 -121l77 112q-66 9 -122 39.5t-96 78t-62.5 109t-22.5 130.5v2q0 74 26.5 140t73.5 115.5t112 78t142 28.5q48 0 86.5 -8t71.5 -22.5t61 -35t54 -45.5l-54 -58q-45 42 -96.5 69t-123.5 27q-58 0 -107.5 -22t-86 -61t-57 -91.5t-20.5 -112.5v-2q0 -61 20.5 -113.5
t57 -91.5t86 -61.5t107.5 -22.5q72 0 124 26.5t102 74.5l52 -51q-26 -27 -54 -48.5t-60 -37.5t-69 -25.5t-81 -11.5l-66 -143z" />
    <glyph glyph-name="Egrave" unicode="&#xc8;" horiz-adv-x="670" 
d="M227 870l80 37l95 -145h-62zM99 700h506v-72h-427v-239h382v-72h-382v-245h432v-72h-511v700z" />
    <glyph glyph-name="Eacute" unicode="&#xc9;" horiz-adv-x="670" 
d="M392 907l80 -37l-113 -108h-62zM99 700h506v-72h-427v-239h382v-72h-382v-245h432v-72h-511v700z" />
    <glyph glyph-name="Ecircumflex" unicode="&#xca;" horiz-adv-x="670" 
d="M314 893h68l106 -131h-66l-75 67l-75 -67h-64zM99 700h506v-72h-427v-239h382v-72h-382v-245h432v-72h-511v700z" />
    <glyph glyph-name="Edieresis" unicode="&#xcb;" horiz-adv-x="670" 
d="M215 857h90v-95h-90v95zM391 857h90v-95h-90v95zM99 700h506v-72h-427v-239h382v-72h-382v-245h432v-72h-511v700z" />
    <glyph glyph-name="Igrave" unicode="&#xcc;" horiz-adv-x="291" 
d="M2 870l80 37l95 -145h-62zM106 700h79v-700h-79v700z" />
    <glyph glyph-name="Iacute" unicode="&#xcd;" horiz-adv-x="291" 
d="M209 907l80 -37l-113 -108h-62zM106 700h79v-700h-79v700z" />
    <glyph glyph-name="Icircumflex" unicode="&#xce;" horiz-adv-x="291" 
d="M112 893h68l106 -131h-66l-75 67l-75 -67h-64zM106 700h79v-700h-79v700z" />
    <glyph glyph-name="Idieresis" unicode="&#xcf;" horiz-adv-x="291" 
d="M13 857h90v-95h-90v95zM189 857h90v-95h-90v95zM106 700h79v-700h-79v700z" />
    <glyph glyph-name="Eth" unicode="&#xd0;" horiz-adv-x="812" 
d="M372 73q66 0 120 21t91.5 58t58 87.5t20.5 108.5v2q0 58 -20.5 108.5t-58 88t-91.5 59t-120 21.5h-164v-239h210v-72h-210v-243h164zM129 316h-75v72h75v312h243q82 0 150.5 -26.5t118 -73.5t76.5 -110.5t27 -137.5v-2q0 -74 -27 -138t-76.5 -111t-118 -74t-150.5 -27
h-243v316z" />
    <glyph glyph-name="Ntilde" unicode="&#xd1;" horiz-adv-x="790" 
d="M231 766q15 57 37 81t58 24q17 0 35 -6.5t36 -14t34 -13.5t29 -6q20 0 30.5 11t21.5 38l47 -13q-15 -57 -37 -81t-58 -24q-17 0 -35 6t-36 13.5t-34 14t-29 6.5q-20 0 -30.5 -11t-21.5 -38zM99 700h74l441 -561v561h77v-700h-63l-452 574v-574h-77v700z" />
    <glyph glyph-name="Ograve" unicode="&#xd2;" horiz-adv-x="850" 
d="M276 870l80 37l95 -145h-62zM426 61q60 0 110.5 22.5t86.5 61.5t56.5 91t20.5 112v2q0 60 -20.5 112.5t-57.5 91.5t-87.5 62t-110.5 23t-110.5 -22.5t-86.5 -61.5t-56.5 -91t-20.5 -112v-2q0 -60 20.5 -112.5t57.5 -91.5t87.5 -62t110.5 -23zM424 -12q-80 0 -145.5 29
t-112.5 78.5t-72.5 115t-25.5 137.5v2q0 72 26 138t73 115.5t113 79t146 29.5t145.5 -29t112.5 -78.5t72.5 -115t25.5 -137.5q1 -1 0 -2q0 -72 -26 -138t-73 -115.5t-113 -79t-146 -29.5z" />
    <glyph glyph-name="Oacute" unicode="&#xd3;" horiz-adv-x="850" 
d="M494 907l80 -37l-113 -108h-62zM426 61q60 0 110.5 22.5t86.5 61.5t56.5 91t20.5 112v2q0 60 -20.5 112.5t-57.5 91.5t-87.5 62t-110.5 23t-110.5 -22.5t-86.5 -61.5t-56.5 -91t-20.5 -112v-2q0 -60 20.5 -112.5t57.5 -91.5t87.5 -62t110.5 -23zM424 -12q-80 0 -145.5 29
t-112.5 78.5t-72.5 115t-25.5 137.5v2q0 72 26 138t73 115.5t113 79t146 29.5t145.5 -29t112.5 -78.5t72.5 -115t25.5 -137.5q1 -1 0 -2q0 -72 -26 -138t-73 -115.5t-113 -79t-146 -29.5z" />
    <glyph glyph-name="Ocircumflex" unicode="&#xd4;" horiz-adv-x="850" 
d="M391 893h68l106 -131h-66l-75 67l-75 -67h-64zM426 61q60 0 110.5 22.5t86.5 61.5t56.5 91t20.5 112v2q0 60 -20.5 112.5t-57.5 91.5t-87.5 62t-110.5 23t-110.5 -22.5t-86.5 -61.5t-56.5 -91t-20.5 -112v-2q0 -60 20.5 -112.5t57.5 -91.5t87.5 -62t110.5 -23zM424 -12
q-80 0 -145.5 29t-112.5 78.5t-72.5 115t-25.5 137.5v2q0 72 26 138t73 115.5t113 79t146 29.5t145.5 -29t112.5 -78.5t72.5 -115t25.5 -137.5q1 -1 0 -2q0 -72 -26 -138t-73 -115.5t-113 -79t-146 -29.5z" />
    <glyph glyph-name="Otilde" unicode="&#xd5;" horiz-adv-x="850" 
d="M261 766q15 57 37 81t58 24q17 0 35 -6.5t36 -14t34 -13.5t29 -6q20 0 30.5 11t21.5 38l47 -13q-15 -57 -37 -81t-58 -24q-17 0 -35 6t-36 13.5t-34 14t-29 6.5q-20 0 -30.5 -11t-21.5 -38zM426 61q60 0 110.5 22.5t86.5 61.5t56.5 91t20.5 112v2q0 60 -20.5 112.5
t-57.5 91.5t-87.5 62t-110.5 23t-110.5 -22.5t-86.5 -61.5t-56.5 -91t-20.5 -112v-2q0 -60 20.5 -112.5t57.5 -91.5t87.5 -62t110.5 -23zM424 -12q-80 0 -145.5 29t-112.5 78.5t-72.5 115t-25.5 137.5v2q0 72 26 138t73 115.5t113 79t146 29.5t145.5 -29t112.5 -78.5
t72.5 -115t25.5 -137.5q1 -1 0 -2q0 -72 -26 -138t-73 -115.5t-113 -79t-146 -29.5z" />
    <glyph glyph-name="Odieresis" unicode="&#xd6;" horiz-adv-x="850" 
d="M292 857h90v-95h-90v95zM468 857h90v-95h-90v95zM426 61q60 0 110.5 22.5t86.5 61.5t56.5 91t20.5 112v2q0 60 -20.5 112.5t-57.5 91.5t-87.5 62t-110.5 23t-110.5 -22.5t-86.5 -61.5t-56.5 -91t-20.5 -112v-2q0 -60 20.5 -112.5t57.5 -91.5t87.5 -62t110.5 -23zM424 -12
q-80 0 -145.5 29t-112.5 78.5t-72.5 115t-25.5 137.5v2q0 72 26 138t73 115.5t113 79t146 29.5t145.5 -29t112.5 -78.5t72.5 -115t25.5 -137.5q1 -1 0 -2q0 -72 -26 -138t-73 -115.5t-113 -79t-146 -29.5z" />
    <glyph glyph-name="Oslash" unicode="&#xd8;" horiz-adv-x="850" 
d="M426 60q60 0 110.5 22.5t86.5 61.5t56.5 91.5t20.5 112.5v2q0 54 -16.5 101.5t-46.5 85.5l-381 -416q34 -29 77 -45t93 -16zM594 579q-34 29 -77 45t-93 16q-60 0 -110.5 -22.5t-86.5 -61.5t-56.5 -91.5t-20.5 -112.5v-2q0 -54 16.5 -101.5t46.5 -85.5zM424 -12
q-65 0 -120 19t-99 54l-62 -66h-83l99 108q-44 49 -67.5 112t-23.5 133v2q0 72 26 138t73 115.5t113 79t146 29.5q65 0 120 -19.5t99 -54.5l62 67h83l-99 -108q44 -49 67.5 -112t23.5 -133q1 -1 0 -2q0 -72 -26 -138t-73 -115.5t-113 -79t-146 -29.5z" />
    <glyph glyph-name="Ugrave" unicode="&#xd9;" horiz-adv-x="759" 
d="M241 865l80 37l95 -145h-62zM379 -11q-65 0 -118.5 19.5t-92 58t-59.5 95.5t-21 131v407h79v-402q0 -114 56.5 -175t157.5 -61q97 0 154 58t57 173v407h79v-401q0 -77 -21 -135t-59.5 -97t-92 -58.5t-119.5 -19.5z" />
    <glyph glyph-name="Uacute" unicode="&#xda;" horiz-adv-x="759" 
d="M438 902l80 -37l-113 -108h-62zM379 -11q-65 0 -118.5 19.5t-92 58t-59.5 95.5t-21 131v407h79v-402q0 -114 56.5 -175t157.5 -61q97 0 154 58t57 173v407h79v-401q0 -77 -21 -135t-59.5 -97t-92 -58.5t-119.5 -19.5z" />
    <glyph glyph-name="Ucircumflex" unicode="&#xdb;" horiz-adv-x="759" 
d="M345 890h68l106 -131h-66l-75 67l-75 -67h-64zM379 -11q-65 0 -118.5 19.5t-92 58t-59.5 95.5t-21 131v407h79v-402q0 -114 56.5 -175t157.5 -61q97 0 154 58t57 173v407h79v-401q0 -77 -21 -135t-59.5 -97t-92 -58.5t-119.5 -19.5z" />
    <glyph glyph-name="Udieresis" unicode="&#xdc;" horiz-adv-x="759" 
d="M246 854h90v-95h-90v95zM422 854h90v-95h-90v95zM379 -11q-65 0 -118.5 19.5t-92 58t-59.5 95.5t-21 131v407h79v-402q0 -114 56.5 -175t157.5 -61q97 0 154 58t57 173v407h79v-401q0 -77 -21 -135t-59.5 -97t-92 -58.5t-119.5 -19.5z" />
    <glyph glyph-name="Yacute" unicode="&#xdd;" horiz-adv-x="716" 
d="M424 902l80 -37l-113 -108h-62zM318 277l-291 423h96l236 -350l238 350h92l-291 -422v-278h-80v277z" />
    <glyph glyph-name="Thorn" unicode="&#xde;" horiz-adv-x="673" 
d="M351 198q43 0 78.5 11.5t61 31.5t39 48.5t13.5 63.5v2q0 75 -51.5 113.5t-136.5 38.5h-177v-309h173zM99 700h79v-120h183q59 0 107.5 -15.5t83 -44t53 -70t18.5 -92.5v-2q0 -57 -22 -100t-59.5 -72t-87.5 -43.5t-106 -14.5h-170v-126h-79v700z" />
    <glyph glyph-name="germandbls" unicode="&#xdf;" horiz-adv-x="620" 
d="M292 60q89 2 140 35.5t51 96.5v2q0 60 -51.5 94t-139.5 43v57q31 12 58.5 27t47 35t31 44.5t11.5 55.5v2q0 52 -36 84.5t-95 32.5q-64 0 -105 -45t-41 -122v-502h-77v501q0 53 16 96.5t45.5 74.5t71.5 48t94 17q47 0 85 -14t65 -38t41.5 -57t14.5 -71v-2q0 -35 -12 -64
t-31.5 -51.5t-44.5 -39.5t-51 -28q35 -8 68 -22t58.5 -36t40.5 -51.5t15 -68.5v-2q0 -47 -19 -83t-54 -61t-85 -38t-112 -12v62z" />
    <glyph glyph-name="agrave" unicode="&#xe0;" horiz-adv-x="579" 
d="M148 703l80 37l95 -145h-62zM255 51q36 0 67 10t54.5 28.5t37 44t13.5 56.5v48q-29 8 -66 15t-85 7q-72 0 -111.5 -28.5t-39.5 -75.5v-2q0 -24 10.5 -43.5t28.5 -32.5t41.5 -20t49.5 -7zM240 -11q-36 0 -71 10t-62 30.5t-43.5 50.5t-16.5 70v2q0 42 16 73.5t45.5 52.5
t70 32t89.5 11q50 0 86.5 -6t71.5 -16v16q0 69 -40 104.5t-113 35.5q-46 0 -83.5 -10t-73.5 -27l-23 63q43 20 87 32t101 12q110 0 167 -57q54 -54 54 -152v-316h-76v77q-27 -35 -72.5 -61.5t-113.5 -26.5z" />
    <glyph glyph-name="aacute" unicode="&#xe1;" horiz-adv-x="579" 
d="M343 740l80 -37l-113 -108h-62zM255 51q36 0 67 10t54.5 28.5t37 44t13.5 56.5v48q-29 8 -66 15t-85 7q-72 0 -111.5 -28.5t-39.5 -75.5v-2q0 -24 10.5 -43.5t28.5 -32.5t41.5 -20t49.5 -7zM240 -11q-36 0 -71 10t-62 30.5t-43.5 50.5t-16.5 70v2q0 42 16 73.5t45.5 52.5
t70 32t89.5 11q50 0 86.5 -6t71.5 -16v16q0 69 -40 104.5t-113 35.5q-46 0 -83.5 -10t-73.5 -27l-23 63q43 20 87 32t101 12q110 0 167 -57q54 -54 54 -152v-316h-76v77q-27 -35 -72.5 -61.5t-113.5 -26.5z" />
    <glyph glyph-name="acircumflex" unicode="&#xe2;" horiz-adv-x="579" 
d="M257 726h68l106 -131h-66l-75 67l-75 -67h-64zM255 51q36 0 67 10t54.5 28.5t37 44t13.5 56.5v48q-29 8 -66 15t-85 7q-72 0 -111.5 -28.5t-39.5 -75.5v-2q0 -24 10.5 -43.5t28.5 -32.5t41.5 -20t49.5 -7zM240 -11q-36 0 -71 10t-62 30.5t-43.5 50.5t-16.5 70v2
q0 42 16 73.5t45.5 52.5t70 32t89.5 11q50 0 86.5 -6t71.5 -16v16q0 69 -40 104.5t-113 35.5q-46 0 -83.5 -10t-73.5 -27l-23 63q43 20 87 32t101 12q110 0 167 -57q54 -54 54 -152v-316h-76v77q-27 -35 -72.5 -61.5t-113.5 -26.5z" />
    <glyph glyph-name="atilde" unicode="&#xe3;" horiz-adv-x="579" 
d="M128 599q15 57 37 81t58 24q17 0 35 -6.5t36 -14t34 -13.5t29 -6q20 0 30.5 11t21.5 38l47 -13q-15 -57 -37 -81t-58 -24q-17 0 -35 6t-36 13.5t-34 14t-29 6.5q-20 0 -30.5 -11t-21.5 -38zM255 51q36 0 67 10t54.5 28.5t37 44t13.5 56.5v48q-29 8 -66 15t-85 7
q-72 0 -111.5 -28.5t-39.5 -75.5v-2q0 -24 10.5 -43.5t28.5 -32.5t41.5 -20t49.5 -7zM240 -11q-36 0 -71 10t-62 30.5t-43.5 50.5t-16.5 70v2q0 42 16 73.5t45.5 52.5t70 32t89.5 11q50 0 86.5 -6t71.5 -16v16q0 69 -40 104.5t-113 35.5q-46 0 -83.5 -10t-73.5 -27l-23 63
q43 20 87 32t101 12q110 0 167 -57q54 -54 54 -152v-316h-76v77q-27 -35 -72.5 -61.5t-113.5 -26.5z" />
    <glyph glyph-name="adieresis" unicode="&#xe4;" horiz-adv-x="579" 
d="M158 690h90v-95h-90v95zM334 690h90v-95h-90v95zM255 51q36 0 67 10t54.5 28.5t37 44t13.5 56.5v48q-29 8 -66 15t-85 7q-72 0 -111.5 -28.5t-39.5 -75.5v-2q0 -24 10.5 -43.5t28.5 -32.5t41.5 -20t49.5 -7zM240 -11q-36 0 -71 10t-62 30.5t-43.5 50.5t-16.5 70v2
q0 42 16 73.5t45.5 52.5t70 32t89.5 11q50 0 86.5 -6t71.5 -16v16q0 69 -40 104.5t-113 35.5q-46 0 -83.5 -10t-73.5 -27l-23 63q43 20 87 32t101 12q110 0 167 -57q54 -54 54 -152v-316h-76v77q-27 -35 -72.5 -61.5t-113.5 -26.5z" />
    <glyph glyph-name="aring" unicode="&#xe5;" horiz-adv-x="579" 
d="M291 631q25 0 43.5 18t18.5 43v2q0 25 -18 43t-44 18t-44 -18t-18 -43v-2q0 -25 18.5 -43t43.5 -18zM291 593q-21 0 -39.5 8t-33 21.5t-23 31.5t-8.5 38v2q0 20 8.5 38t23 31.5t33 21.5t39.5 8t39.5 -8t33 -21.5t23 -31.5t8.5 -38v-2q0 -20 -8.5 -38t-23 -31.5t-33 -21.5
t-39.5 -8zM255 51q36 0 67 10t54.5 28.5t37 44t13.5 56.5v48q-29 8 -66 15t-85 7q-72 0 -111.5 -28.5t-39.5 -75.5v-2q0 -24 10.5 -43.5t28.5 -32.5t41.5 -20t49.5 -7zM240 -11q-36 0 -71 10t-62 30.5t-43.5 50.5t-16.5 70v2q0 42 16 73.5t45.5 52.5t70 32t89.5 11
q50 0 86.5 -6t71.5 -16v16q0 69 -40 104.5t-113 35.5q-46 0 -83.5 -10t-73.5 -27l-23 63q43 20 87 32t101 12q110 0 167 -57q54 -54 54 -152v-316h-76v77q-27 -35 -72.5 -61.5t-113.5 -26.5z" />
    <glyph glyph-name="ae" unicode="&#xe6;" horiz-adv-x="953" 
d="M251 51q34 0 60.5 7t48.5 19t40.5 29t36.5 37q-18 45 -21 97q-29 8 -64.5 14t-79.5 6q-69 0 -108 -28.5t-39 -75.5v-2q0 -24 10.5 -43.5t28 -32.5t40.5 -20t47 -7zM826 289q-3 35 -15 66.5t-32.5 55.5t-50 38t-67.5 14q-33 0 -62 -13t-51 -36.5t-36.5 -55.5t-18.5 -69
h333zM236 -11q-35 0 -68.5 10t-60.5 30.5t-43.5 50.5t-16.5 70v2q0 42 16 73.5t45 52.5t69 32t87 11q46 0 80.5 -6t72.5 -16v16q0 70 -39.5 105t-108.5 35q-42 0 -79.5 -10t-73.5 -27l-23 63q43 20 86.5 32t97.5 12q70 0 119.5 -28t69.5 -84q31 52 82.5 83.5t115.5 31.5
q57 0 101.5 -21.5t75.5 -58.5t47 -87t16 -107v-11.5t-1 -15.5h-410q4 -41 20 -73t41 -54t56 -33.5t65 -11.5q54 0 92.5 20t70.5 53l48 -43q-39 -44 -89 -70.5t-124 -26.5q-63 0 -116.5 27.5t-88.5 76.5q-21 -21 -47.5 -40t-57 -33t-63 -22t-64.5 -8z" />
    <glyph glyph-name="ccedilla" unicode="&#xe7;" horiz-adv-x="571" 
d="M193 -121l78 114q-47 8 -87 32t-69 59t-45 79t-16 93v2q0 55 20 104t55.5 86t84 58.5t105.5 21.5q37 0 67 -7t55 -19.5t46 -29.5t39 -36l-51 -54q-31 32 -67.5 55t-89.5 23q-39 0 -73 -15.5t-59 -42.5t-39 -63.5t-14 -78.5v-2q0 -42 14.5 -78.5t40 -64t60 -43t75.5 -15.5
q50 0 88.5 22t69.5 55l49 -46q-38 -42 -83.5 -69t-112.5 -31l-66 -143z" />
    <glyph glyph-name="egrave" unicode="&#xe8;" horiz-adv-x="592" 
d="M163 703l80 37l95 -145h-62zM465 289q-3 35 -15 66.5t-32.5 55.5t-50 38t-67.5 14q-33 0 -62 -13t-51 -36.5t-36.5 -55.5t-18.5 -69h333zM132 227q4 -41 20 -73t41 -54t56 -33.5t65 -11.5q54 0 92.5 20t70.5 53l48 -43q-39 -44 -89 -70.5t-124 -26.5q-53 0 -100 19.5
t-82 55t-55.5 85.5t-20.5 110q0 56 18.5 105.5t51.5 86t78.5 57.5t99.5 21q57 0 102 -21.5t76 -58.5t47 -87t16 -107v-11.5t-1 -15.5h-410z" />
    <glyph glyph-name="eacute" unicode="&#xe9;" horiz-adv-x="592" 
d="M349 740l80 -37l-113 -108h-62zM465 289q-3 35 -15 66.5t-32.5 55.5t-50 38t-67.5 14q-33 0 -62 -13t-51 -36.5t-36.5 -55.5t-18.5 -69h333zM132 227q4 -41 20 -73t41 -54t56 -33.5t65 -11.5q54 0 92.5 20t70.5 53l48 -43q-39 -44 -89 -70.5t-124 -26.5q-53 0 -100 19.5
t-82 55t-55.5 85.5t-20.5 110q0 56 18.5 105.5t51.5 86t78.5 57.5t99.5 21q57 0 102 -21.5t76 -58.5t47 -87t16 -107v-11.5t-1 -15.5h-410z" />
    <glyph glyph-name="ecircumflex" unicode="&#xea;" horiz-adv-x="592" 
d="M265 726h68l106 -131h-66l-75 67l-75 -67h-64zM465 289q-3 35 -15 66.5t-32.5 55.5t-50 38t-67.5 14q-33 0 -62 -13t-51 -36.5t-36.5 -55.5t-18.5 -69h333zM132 227q4 -41 20 -73t41 -54t56 -33.5t65 -11.5q54 0 92.5 20t70.5 53l48 -43q-39 -44 -89 -70.5t-124 -26.5
q-53 0 -100 19.5t-82 55t-55.5 85.5t-20.5 110q0 56 18.5 105.5t51.5 86t78.5 57.5t99.5 21q57 0 102 -21.5t76 -58.5t47 -87t16 -107v-11.5t-1 -15.5h-410z" />
    <glyph glyph-name="edieresis" unicode="&#xeb;" horiz-adv-x="592" 
d="M166 690h90v-95h-90v95zM342 690h90v-95h-90v95zM465 289q-3 35 -15 66.5t-32.5 55.5t-50 38t-67.5 14q-33 0 -62 -13t-51 -36.5t-36.5 -55.5t-18.5 -69h333zM132 227q4 -41 20 -73t41 -54t56 -33.5t65 -11.5q54 0 92.5 20t70.5 53l48 -43q-39 -44 -89 -70.5t-124 -26.5
q-53 0 -100 19.5t-82 55t-55.5 85.5t-20.5 110q0 56 18.5 105.5t51.5 86t78.5 57.5t99.5 21q57 0 102 -21.5t76 -58.5t47 -87t16 -107v-11.5t-1 -15.5h-410z" />
    <glyph glyph-name="igrave" unicode="&#xec;" horiz-adv-x="263" 
d="M-11 703l80 37l95 -145h-62zM93 517h77v-517h-77v517z" />
    <glyph glyph-name="iacute" unicode="&#xed;" horiz-adv-x="263" 
d="M195 740l80 -37l-113 -108h-62zM93 517h77v-517h-77v517z" />
    <glyph glyph-name="icircumflex" unicode="&#xee;" horiz-adv-x="263" 
d="M97 726h68l106 -131h-66l-75 67l-75 -67h-64zM93 517h77v-517h-77v517z" />
    <glyph glyph-name="idieresis" unicode="&#xef;" horiz-adv-x="263" 
d="M-2 690h90v-95h-90v95zM174 690h90v-95h-90v95zM93 517h77v-517h-77v517z" />
    <glyph glyph-name="eth" unicode="&#xf0;" horiz-adv-x="633" 
d="M317 56q41 0 74.5 15t57.5 41t37 59.5t13 71.5v2q0 37 -14.5 69.5t-40 57t-60 39t-75.5 14.5t-73.5 -14t-55.5 -38.5t-35.5 -57.5t-12.5 -71v-2q0 -36 13.5 -69.5t38.5 -59.5t58.5 -41.5t74.5 -15.5zM312 -12q-56 0 -103 20.5t-81.5 55.5t-54 81.5t-19.5 99.5v2
q0 54 19 98t51.5 75.5t75.5 48.5t91 17q54 0 91.5 -16t70.5 -39l-131 184l-128 -63l-36 47l131 61l-50 70h92l26 -39l99 48l35 -47l-102 -47l101 -149q41 -59 64.5 -116t23.5 -127v-2q0 -53 -18.5 -100.5t-53 -83.5t-84 -57.5t-110.5 -21.5z" />
    <glyph glyph-name="ntilde" unicode="&#xf1;" horiz-adv-x="616" 
d="M148 599q15 57 37 81t58 24q17 0 35 -6.5t36 -14t34 -13.5t29 -6q20 0 30.5 11t21.5 38l47 -13q-15 -57 -37 -81t-58 -24q-17 0 -35 6t-36 13.5t-34 14t-29 6.5q-20 0 -30.5 -11t-21.5 -38zM86 517h77v-90q26 42 68 71.5t109 29.5q47 0 83.5 -15t62 -42.5t39 -65.5
t13.5 -84v-321h-77v302q0 72 -37 114t-106 42q-33 0 -61.5 -11.5t-49.5 -33t-32.5 -51.5t-11.5 -66v-296h-77v517z" />
    <glyph glyph-name="ograve" unicode="&#xf2;" horiz-adv-x="646" 
d="M179 703l80 37l95 -145h-62zM324 57q42 0 77 16t60 43t39 63t14 77v2q0 42 -14.5 78.5t-40.5 64t-61 43.5t-76 16q-42 0 -77 -16t-59.5 -43t-38.5 -63.5t-14 -77.5v-2q0 -42 14.5 -78.5t40 -63.5t60.5 -43t76 -16zM322 -12q-58 0 -107 21.5t-85 58t-56 85t-20 103.5v2
q0 55 20 104t56 86t85.5 58.5t108.5 21.5q58 0 107.5 -21.5t85.5 -58t56 -85t20 -103.5v-2q0 -55 -20.5 -104t-56.5 -86t-86 -58.5t-108 -21.5z" />
    <glyph glyph-name="oacute" unicode="&#xf3;" horiz-adv-x="646" 
d="M388 740l80 -37l-113 -108h-62zM324 57q42 0 77 16t60 43t39 63t14 77v2q0 42 -14.5 78.5t-40.5 64t-61 43.5t-76 16q-42 0 -77 -16t-59.5 -43t-38.5 -63.5t-14 -77.5v-2q0 -42 14.5 -78.5t40 -63.5t60.5 -43t76 -16zM322 -12q-58 0 -107 21.5t-85 58t-56 85t-20 103.5v2
q0 55 20 104t56 86t85.5 58.5t108.5 21.5q58 0 107.5 -21.5t85.5 -58t56 -85t20 -103.5v-2q0 -55 -20.5 -104t-56.5 -86t-86 -58.5t-108 -21.5z" />
    <glyph glyph-name="ocircumflex" unicode="&#xf4;" horiz-adv-x="646" 
d="M289 726h68l106 -131h-66l-75 67l-75 -67h-64zM324 57q42 0 77 16t60 43t39 63t14 77v2q0 42 -14.5 78.5t-40.5 64t-61 43.5t-76 16q-42 0 -77 -16t-59.5 -43t-38.5 -63.5t-14 -77.5v-2q0 -42 14.5 -78.5t40 -63.5t60.5 -43t76 -16zM322 -12q-58 0 -107 21.5t-85 58
t-56 85t-20 103.5v2q0 55 20 104t56 86t85.5 58.5t108.5 21.5q58 0 107.5 -21.5t85.5 -58t56 -85t20 -103.5v-2q0 -55 -20.5 -104t-56.5 -86t-86 -58.5t-108 -21.5z" />
    <glyph glyph-name="otilde" unicode="&#xf5;" horiz-adv-x="646" 
d="M159 599q15 57 37 81t58 24q17 0 35 -6.5t36 -14t34 -13.5t29 -6q20 0 30.5 11t21.5 38l47 -13q-15 -57 -37 -81t-58 -24q-17 0 -35 6t-36 13.5t-34 14t-29 6.5q-20 0 -30.5 -11t-21.5 -38zM324 57q42 0 77 16t60 43t39 63t14 77v2q0 42 -14.5 78.5t-40.5 64t-61 43.5
t-76 16q-42 0 -77 -16t-59.5 -43t-38.5 -63.5t-14 -77.5v-2q0 -42 14.5 -78.5t40 -63.5t60.5 -43t76 -16zM322 -12q-58 0 -107 21.5t-85 58t-56 85t-20 103.5v2q0 55 20 104t56 86t85.5 58.5t108.5 21.5q58 0 107.5 -21.5t85.5 -58t56 -85t20 -103.5v-2q0 -55 -20.5 -104
t-56.5 -86t-86 -58.5t-108 -21.5z" />
    <glyph glyph-name="odieresis" unicode="&#xf6;" horiz-adv-x="646" 
d="M190 690h90v-95h-90v95zM366 690h90v-95h-90v95zM324 57q42 0 77 16t60 43t39 63t14 77v2q0 42 -14.5 78.5t-40.5 64t-61 43.5t-76 16q-42 0 -77 -16t-59.5 -43t-38.5 -63.5t-14 -77.5v-2q0 -42 14.5 -78.5t40 -63.5t60.5 -43t76 -16zM322 -12q-58 0 -107 21.5t-85 58
t-56 85t-20 103.5v2q0 55 20 104t56 86t85.5 58.5t108.5 21.5q58 0 107.5 -21.5t85.5 -58t56 -85t20 -103.5v-2q0 -55 -20.5 -104t-56.5 -86t-86 -58.5t-108 -21.5z" />
    <glyph glyph-name="oslash" unicode="&#xf8;" horiz-adv-x="646" 
d="M324 56q42 0 77.5 16t60.5 43t39 63.5t14 77.5v2q0 35 -10.5 66t-28.5 56l-267 -283q23 -20 52.5 -30.5t62.5 -10.5zM438 419q-24 20 -53 31t-63 11q-42 0 -77 -16t-60 -43.5t-39 -64t-14 -77.5v-2q0 -35 10 -65.5t28 -56.5zM322 -12q-47 0 -87.5 14t-73.5 39l-45 -46
h-77l79 85q-30 35 -47 80.5t-17 95.5v2q0 55 20 104t56 86t85.5 58.5t108.5 21.5q47 0 88 -14t73 -40l45 49h78q-19 -20 -36 -38q-14 -15 -27 -29t-17 -19q31 -35 48 -80.5t17 -96.5v-2q0 -55 -20.5 -104t-56.5 -86t-86 -58.5t-108 -21.5z" />
    <glyph glyph-name="ugrave" unicode="&#xf9;" horiz-adv-x="616" 
d="M171 699l80 37l95 -145h-62zM276 -11q-47 0 -83.5 15t-62 42.5t-39 65.5t-13.5 84v321h77v-302q0 -72 37 -114t106 -42q33 0 61.5 11.5t49 33t32.5 51.5t12 66v296h76v-517h-76v90q-26 -42 -68 -71.5t-109 -29.5z" />
    <glyph glyph-name="uacute" unicode="&#xfa;" horiz-adv-x="616" 
d="M361 736l80 -37l-113 -108h-62zM276 -11q-47 0 -83.5 15t-62 42.5t-39 65.5t-13.5 84v321h77v-302q0 -72 37 -114t106 -42q33 0 61.5 11.5t49 33t32.5 51.5t12 66v296h76v-517h-76v90q-26 -42 -68 -71.5t-109 -29.5z" />
    <glyph glyph-name="ucircumflex" unicode="&#xfb;" horiz-adv-x="616" 
d="M275 726h68l106 -131h-66l-75 67l-75 -67h-64zM276 -11q-47 0 -83.5 15t-62 42.5t-39 65.5t-13.5 84v321h77v-302q0 -72 37 -114t106 -42q33 0 61.5 11.5t49 33t32.5 51.5t12 66v296h76v-517h-76v90q-26 -42 -68 -71.5t-109 -29.5z" />
    <glyph glyph-name="udieresis" unicode="&#xfc;" horiz-adv-x="616" 
d="M176 690h90v-95h-90v95zM352 690h90v-95h-90v95zM276 -11q-47 0 -83.5 15t-62 42.5t-39 65.5t-13.5 84v321h77v-302q0 -72 37 -114t106 -42q33 0 61.5 11.5t49 33t32.5 51.5t12 66v296h76v-517h-76v90q-26 -42 -68 -71.5t-109 -29.5z" />
    <glyph glyph-name="yacute" unicode="&#xfd;" horiz-adv-x="591" 
d="M362 736l80 -37l-113 -108h-62zM166 -163q-32 0 -58 6.5t-52 19.5l26 61q19 -10 37.5 -14.5t43.5 -4.5q35 0 59 21t47 76l-235 515h85l188 -431l166 431h82l-217 -534q-33 -80 -73.5 -113t-98.5 -33z" />
    <glyph glyph-name="thorn" unicode="&#xfe;" horiz-adv-x="664" 
d="M347 58q37 0 70.5 13.5t58 39t39 62.5t14.5 84v2q0 46 -14.5 83t-39.5 63t-58 40t-70 14q-36 0 -69.5 -14.5t-60 -41t-42 -63t-15.5 -80.5v-2q0 -45 15.5 -82t42 -63t60 -40.5t69.5 -14.5zM86 730h77v-317q16 23 35.5 44t43.5 36.5t53.5 25t65.5 9.5q46 0 90.5 -18
t79.5 -52.5t56 -84t21 -113.5v-2q0 -63 -21 -113t-55.5 -84.5t-79 -53t-91.5 -18.5q-36 0 -66 9t-54 24t-43.5 35t-34.5 42v-259h-77v890z" />
    <glyph glyph-name="ydieresis" unicode="&#xff;" horiz-adv-x="591" 
d="M163 690h90v-95h-90v95zM339 690h90v-95h-90v95zM166 -163q-32 0 -58 6.5t-52 19.5l26 61q19 -10 37.5 -14.5t43.5 -4.5q35 0 59 21t47 76l-235 515h85l188 -431l166 431h82l-217 -534q-33 -80 -73.5 -113t-98.5 -33z" />
    <glyph glyph-name="dotlessi" unicode="&#x131;" horiz-adv-x="263" 
d="M93 517h77v-517h-77v517z" />
    <glyph glyph-name="Lslash" unicode="&#x141;" horiz-adv-x="649" 
d="M129 301l-75 -22v73l75 23v325h78v-301l216 66v-74l-216 -65v-253h395v-73h-473v301z" />
    <glyph glyph-name="lslash" unicode="&#x142;" horiz-adv-x="323" 
d="M124 321l-76 -24v75l76 23v335h76v-312l76 24v-75l-76 -24v-343h-76v321z" />
    <glyph glyph-name="OE" unicode="&#x152;" horiz-adv-x="1131" 
d="M578 73v554h-138q-66 0 -120 -21t-91.5 -58t-58 -87.5t-20.5 -108.5v-2q0 -58 20.5 -108.5t58 -88t91.5 -59t120 -21.5h138zM440 0q-83 0 -151 26.5t-117.5 73.5t-76.5 110.5t-27 137.5v2q0 74 27 138t76.5 111t117.5 74t151 27h626v-72h-409v-239h364v-72h-364v-245h414
v-72h-631z" />
    <glyph glyph-name="oe" unicode="&#x153;" horiz-adv-x="1049" 
d="M323 57q42 0 76.5 16t59 43t38.5 63t14 77v2q0 42 -14.5 78.5t-40 64t-60.5 43.5t-75 16q-42 0 -76.5 -16t-59 -43t-38.5 -63.5t-14 -77.5v-2q0 -42 14.5 -78.5t40 -63.5t60 -43t75.5 -16zM922 289q-3 35 -15 66.5t-32.5 55.5t-50 38t-67.5 14q-33 0 -62 -13t-51 -36.5
t-36.5 -55.5t-18.5 -69h333zM319 -12q-56 0 -104.5 21.5t-84 58t-56 85t-20.5 103.5v2q0 55 20.5 104t56.5 86t85 58.5t106 21.5q76 0 135 -38t91 -99q29 62 84.5 99.5t127.5 37.5q57 0 101.5 -21.5t75.5 -58.5t47 -87t16 -107v-11.5t-1 -15.5h-410q4 -41 20 -73t41 -54
t56 -33.5t65 -11.5q54 0 92.5 20t70.5 53l48 -43q-38 -44 -88.5 -70.5t-123.5 -26.5q-72 0 -131.5 37t-91.5 102q-32 -61 -91.5 -100t-136.5 -39z" />
    <glyph glyph-name="Scaron" unicode="&#x160;" horiz-adv-x="640" 
d="M184 893h66l75 -67l75 67h64l-106 -131h-68zM339 -10q-84 0 -153.5 27.5t-132.5 84.5l49 58q55 -50 111 -74.5t129 -24.5q71 0 113.5 33.5t42.5 85.5v2q0 24 -8 43.5t-28 35.5t-55.5 29t-90.5 25q-60 13 -104.5 30t-73.5 41t-43 56t-14 75v2q0 41 17 76t48 60.5t73 40
t92 14.5q77 0 134.5 -21.5t111.5 -64.5l-46 -61q-49 40 -98.5 58t-103.5 18q-69 0 -109 -32.5t-40 -80.5v-2q0 -25 8 -44.5t29 -36t58 -30t95 -25.5q117 -26 172.5 -72t55.5 -126v-2q0 -45 -18 -81.5t-49.5 -62.5t-75.5 -40t-96 -14z" />
    <glyph glyph-name="scaron" unicode="&#x161;" horiz-adv-x="498" 
d="M112 726h66l75 -67l75 67h64l-106 -131h-68zM257 -10q-56 0 -113 20.5t-101 55.5l39 55q42 -32 87.5 -49t91.5 -17q47 0 77 22t30 60v2q0 19 -10.5 33t-28.5 24.5t-41.5 18.5t-48.5 15q-30 9 -60.5 19.5t-55 26.5t-40 40t-15.5 60v2q0 33 13 60.5t36.5 47t56 30
t70.5 10.5q48 0 97 -15.5t89 -41.5l-35 -58q-36 23 -75.5 36.5t-77.5 13.5q-46 0 -73 -21.5t-27 -53.5v-2q0 -18 11 -31.5t29.5 -23.5t42.5 -18t50 -16q30 -9 59.5 -20t53.5 -28t38.5 -41t14.5 -59v-2q0 -37 -14.5 -65.5t-39 -48.5t-58 -30.5t-72.5 -10.5z" />
    <glyph glyph-name="Ydieresis" unicode="&#x178;" horiz-adv-x="716" 
d="M225 854h90v-95h-90v95zM401 854h90v-95h-90v95zM318 277l-291 423h96l236 -350l238 350h92l-291 -422v-278h-80v277z" />
    <glyph glyph-name="Zcaron" unicode="&#x17d;" horiz-adv-x="693" 
d="M211 893h66l75 -67l75 67h64l-106 -131h-68zM67 53l453 576h-438v71h546v-53l-454 -576h454v-71h-561v53z" />
    <glyph glyph-name="zcaron" unicode="&#x17e;" horiz-adv-x="556" 
d="M147 726h66l75 -67l75 67h64l-106 -131h-68zM56 49l343 403h-331v65h436v-49l-344 -403h344v-65h-448v49z" />
    <glyph glyph-name="florin" unicode="&#x192;" horiz-adv-x="514" 
d="M93 -5q-17 0 -29 1t-23 3v66q19 -4 44 -4q32 0 51.5 18t26.5 58l44 236h-98v67h109l23 119q14 75 50.5 110.5t105.5 35.5q26 0 44.5 -2.5t36.5 -8.5v-66q-18 5 -35.5 7.5t-33.5 2.5q-39 0 -60 -21t-30 -69l-20 -108h144v-67h-156l-45 -244q-14 -70 -49.5 -102t-99.5 -32z
" />
    <glyph glyph-name="circumflex" unicode="&#x2c6;" 
d="M216 726h68l106 -131h-66l-75 67l-75 -67h-64z" />
    <glyph glyph-name="caron" unicode="&#x2c7;" 
d="M110 726h66l75 -67l75 67h64l-106 -131h-68z" />
    <glyph glyph-name="breve" unicode="&#x2d8;" 
d="M250 593q-63 0 -103 35t-45 98h56q9 -32 31.5 -50.5t60.5 -18.5t60.5 18.5t31.5 50.5h56q-5 -63 -45 -98t-103 -35z" />
    <glyph glyph-name="dotaccent" unicode="&#x2d9;" 
d="M203 691h94v-96h-94v96z" />
    <glyph glyph-name="ring" unicode="&#x2da;" 
d="M250 631q25 0 43.5 18t18.5 43v2q0 25 -18 43t-44 18t-44 -18t-18 -43v-2q0 -25 18.5 -43t43.5 -18zM250 593q-21 0 -39.5 8t-33 21.5t-23 31.5t-8.5 38v2q0 20 8.5 38t23 31.5t33 21.5t39.5 8t39.5 -8t33 -21.5t23 -31.5t8.5 -38v-2q0 -20 -8.5 -38t-23 -31.5t-33 -21.5
t-39.5 -8z" />
    <glyph glyph-name="ogonek" unicode="&#x2db;" 
d="M360 -164q-88 -5 -132.5 26t-44.5 82q0 18 4 35t10 31h60q-6 -26 -6 -51q0 -38 26 -58.5t83 -23.5v-41z" />
    <glyph glyph-name="tilde" unicode="&#x2dc;" 
d="M86 599q15 57 37 81t58 24q17 0 35 -6.5t36 -14t34 -13.5t29 -6q20 0 30.5 11t21.5 38l47 -13q-15 -57 -37 -81t-58 -24q-17 0 -35 6t-36 13.5t-34 14t-29 6.5q-20 0 -30.5 -11t-21.5 -38z" />
    <glyph glyph-name="hungarumlaut" unicode="&#x2dd;" 
d="M179 740l75 -37l-108 -108h-62zM343 740l75 -37l-109 -108h-61z" />
    <glyph glyph-name="Omega" unicode="&#x3a9;" horiz-adv-x="735" 
d="M115 449h-71v67h71v45q0 88 45 133q40 40 111 40q27 0 46.5 -3t38.5 -10v-67q-21 6 -38 9.5t-37 3.5q-90 0 -90 -110v-42h164v-66h-163v-449h-77v449zM483 449h-71v67h71v45q0 89 44 133q42 40 111 40q27 0 47 -3t38 -10v-67q-20 6 -37 9.5t-37 3.5q-90 0 -90 -110v-42
h163v-66h-163v-449h-76v449z" />
    <glyph glyph-name="Omega" unicode="&#x2126;" horiz-adv-x="735" 
d="M115 449h-71v67h71v45q0 88 45 133q40 40 111 40q27 0 46.5 -3t38.5 -10v-67q-21 6 -38 9.5t-37 3.5q-90 0 -90 -110v-42h164v-66h-163v-449h-77v449zM483 449h-71v67h71v45q0 89 44 133q42 40 111 40q27 0 47 -3t38 -10v-67q-20 6 -37 9.5t-37 3.5q-90 0 -90 -110v-42
h163v-66h-163v-449h-76v449z" />
    <glyph glyph-name="pi" unicode="&#x3c0;" horiz-adv-x="830" 
d="M432 347q43 0 68.5 19t25.5 54v2q0 36 -25 53.5t-68 17.5h-85v-146h84zM292 543h146q66 0 105 -31.5t39 -88.5v-2q0 -31 -12.5 -54.5t-33 -39t-48 -23t-57.5 -7.5h-83v-125h-56v371zM414 19q70 0 130.5 26.5t105 71.5t69.5 105t25 128v2q0 68 -25 128t-69 104.5
t-104 70.5t-130 26q-71 0 -131 -26.5t-104.5 -71.5t-69.5 -105t-25 -128v-2q0 -68 25 -128t69 -104.5t104 -70.5t130 -26zM414 -12q-76 0 -142 28.5t-114.5 77.5t-76.5 114.5t-28 139.5v2q0 74 28 139.5t77 115t115.5 78.5t142.5 29t142 -28.5t114.5 -77.5t76.5 -114.5
t28 -139.5v-2q0 -74 -28 -139.5t-77 -115t-115.5 -78.5t-142.5 -29z" />
    <glyph glyph-name="endash" unicode="&#x2013;" horiz-adv-x="528" 
d="M65 339h398v-77h-398v77z" />
    <glyph glyph-name="emdash" unicode="&#x2014;" horiz-adv-x="898" 
d="M65 339h768v-77h-768v77z" />
    <glyph glyph-name="quoteleft" unicode="&#x2018;" horiz-adv-x="245" 
d="M72 568q0 61 26.5 92.5t83.5 44.5l12 -35q-38 -14 -53.5 -34.5t-13.5 -52.5h37v-105h-92v90z" />
    <glyph glyph-name="quoteright" unicode="&#x2019;" horiz-adv-x="245" 
d="M51 508q38 14 54 34.5t13 52.5h-36v105h92v-90q0 -61 -27 -92.5t-84 -44.5z" />
    <glyph glyph-name="quotesinglbase" unicode="&#x201a;" horiz-adv-x="245" 
d="M46 -87q38 14 54 34.5t13 52.5h-36v105h92v-90q0 -61 -27 -92.5t-84 -44.5z" />
    <glyph glyph-name="quotedblleft" unicode="&#x201c;" horiz-adv-x="445" 
d="M72 568q0 61 26.5 92.5t83.5 44.5l12 -35q-38 -14 -53.5 -34.5t-13.5 -52.5h37v-105h-92v90zM272 568q0 61 26.5 92.5t83.5 44.5l12 -35q-38 -14 -53.5 -34.5t-13.5 -52.5h36v-105h-91v90z" />
    <glyph glyph-name="quotedblright" unicode="&#x201d;" horiz-adv-x="445" 
d="M51 508q38 14 54 34.5t13 52.5h-36v105h92v-90q0 -61 -27 -92.5t-84 -44.5zM251 508q38 14 54 34.5t13 52.5h-36v105h91v-90q0 -61 -26.5 -92.5t-83.5 -44.5z" />
    <glyph glyph-name="quotedblbase" unicode="&#x201e;" horiz-adv-x="445" 
d="M46 -87q38 14 54 34.5t13 52.5h-36v105h92v-90q0 -61 -27 -92.5t-84 -44.5zM246 -87q38 14 54 34.5t13 52.5h-36v105h91v-90q0 -61 -26.5 -92.5t-83.5 -44.5z" />
    <glyph glyph-name="dagger" unicode="&#x2020;" horiz-adv-x="410" 
d="M184 520l-124 -8v55l123 -8l-9 141h62l-9 -141l123 8v-55l-124 8l6 -282h-54z" />
    <glyph glyph-name="daggerdbl" unicode="&#x2021;" horiz-adv-x="430" 
d="M193 141l-123 -8v55l124 -8l-6 170l6 170l-124 -8v55l123 -8l-9 141h62l-9 -141l123 8v-55l-124 8l6 -170l-6 -170l124 8v-55l-123 8l9 -141h-62z" />
    <glyph glyph-name="bullet" unicode="&#x2022;" horiz-adv-x="478" 
d="M239 221q-27 0 -51 10t-41.5 28t-28 41.5t-10.5 50.5v2q0 27 10.5 50.5t28.5 41.5t42 28t50 10t49.5 -10t41.5 -28t29 -41.5t11 -50.5v-2q0 -27 -10.5 -50.5t-28 -41.5t-41.5 -28t-51 -10z" />
    <glyph glyph-name="ellipsis" unicode="&#x2026;" horiz-adv-x="723" 
d="M77 103h89v-103h-89v103zM317 103h89v-103h-89v103zM557 103h90v-103h-90v103z" />
    <glyph glyph-name="perthousand" unicode="&#x2030;" horiz-adv-x="1211" 
d="M624 48q21 0 37.5 9.5t28.5 26t18.5 38.5t6.5 47v2q0 26 -7 48.5t-20 39t-30 26t-36 9.5q-20 0 -37 -9.5t-29 -26t-18.5 -38.5t-6.5 -47v-2q0 -26 7 -48.5t20 -39t29.5 -26t36.5 -9.5zM1001 48q21 0 37.5 9.5t28.5 26t18.5 38.5t6.5 47v2q0 26 -7 48.5t-20 39t-30 26
t-36 9.5q-20 0 -37 -9.5t-29 -26t-18.5 -38.5t-6.5 -47v-2q0 -26 7 -48.5t20 -39t29.5 -26t36.5 -9.5zM212 406q20 0 37 9.5t29 26t18.5 38.5t6.5 47v2q0 26 -7.5 48.5t-20 39t-29.5 26t-36 9.5q-21 0 -37.5 -9.5t-28.5 -26t-18.5 -38.5t-6.5 -47v-2q0 -26 7 -48.5t20 -39
t29.5 -26t36.5 -9.5zM622 -8q-35 0 -64 14.5t-49.5 39t-32 56.5t-11.5 67v2q0 36 11.5 68t32.5 57t50 39.5t65 14.5t65 -14.5t49.5 -39t31.5 -56.5t11 -67v-2q0 -36 -11.5 -68t-32 -57t-50 -39.5t-65.5 -14.5zM999 -8q-35 0 -64 14.5t-49.5 39t-32 56.5t-11.5 67v2
q0 36 11.5 68t32.5 57t50 39.5t65 14.5t65 -14.5t49.5 -39t31.5 -56.5t11 -67v-2q0 -36 -11.5 -68t-32 -57t-50 -39.5t-65.5 -14.5zM638 700h71l-513 -700h-72zM210 350q-36 0 -65 14.5t-49.5 39t-32 56.5t-11.5 67v2q0 36 11.5 68t32.5 57t50.5 39.5t65.5 14.5
q35 0 64 -14.5t49.5 -39t32 -56.5t11.5 -67v-2q0 -36 -11.5 -68t-32.5 -57t-50 -39.5t-65 -14.5z" />
    <glyph glyph-name="guilsinglleft" unicode="&#x2039;" horiz-adv-x="328" 
d="M48 255v8l162 213l59 -33l-135 -183l135 -185l-59 -34z" />
    <glyph glyph-name="guilsinglright" unicode="&#x203a;" horiz-adv-x="328" 
d="M59 74l135 184l-135 184l58 34l162 -213v-8l-162 -214z" />
    <glyph glyph-name="fraction" unicode="&#x2044;" horiz-adv-x="429" 
d="M399 758h76l-467 -856h-76z" />
    <glyph glyph-name="fraction" unicode="&#x2215;" horiz-adv-x="429" 
d="M399 758h76l-467 -856h-76z" />
    <glyph glyph-name="trademark" unicode="&#x2122;" horiz-adv-x="690" 
d="M125 658h-99v42h242v-42h-99v-266h-44v266zM336 700h47l110 -169l109 169h46v-308h-43v236l-110 -167h-6l-109 167v-236h-44v308z" />
    <glyph glyph-name="radical" unicode="&#x221a;" horiz-adv-x="998" 
d="M828 730h77v-730h-77v730zM115 449h-71v67h71v45q0 88 45 133q40 40 111 40q27 0 46.5 -3t38.5 -10v-67q-21 6 -38 9.5t-37 3.5q-90 0 -90 -110v-42h164v-66h-163v-449h-77v449zM483 449h-71v67h71v45q0 89 44 133q42 40 111 40q27 0 47 -3t38 -10v-67q-20 6 -37 9.5
t-37 3.5q-90 0 -90 -110v-42h163v-66h-163v-449h-76v449z" />
    <glyph glyph-name="approxequal" unicode="&#x2248;" horiz-adv-x="998" 
d="M828 517h77v-517h-77v517zM115 449h-71v67h71v45q0 88 45 133q40 40 111 40q27 0 46.5 -3t38.5 -10v-67q-21 6 -38 9.5t-37 3.5q-90 0 -90 -110v-42h164v-66h-163v-449h-77v449zM483 449h-71v67h71v45q0 89 44 133q42 40 111 40q27 0 47 -3t38 -10v-67q-20 6 -37 9.5
t-37 3.5q-90 0 -90 -110v-42h163v-66h-163v-449h-76v449zM823 715h87v-85h-87v85z" />
    <glyph glyph-name="NUL" horiz-adv-x="0" 
 />
    <glyph glyph-name="apple" horiz-adv-x="967" 
d="M417 64q0 -7 -2.5 -12t-9.5 -5q-6 0 -9 5t-3 12q0 16 12 16t12 -16zM352 64h-3q-8 0 -8 8q0 6 7 6q4 0 4 -4v-10zM553 79q4 0 0 -9q-5 9 0 9zM393 182q0 -7 -4 -7h-5q-11 0 -18.5 10t-7.5 22q0 17 14 17h6q3 -1 3.5 -1.5t2.5 -5.5zM716 187q0 -13 -11 -13q-9 0 -17 11.5
t-8 26.5q0 14 11 14q9 0 17 -11.5t8 -27.5zM275 200q-8 0 -11.5 5t-3.5 10q0 9 8 9t9 -5l3 -19h-5zM381 384q-13 0 -13 11t13 11h11v-22h-11zM684 535q0 -13 -11 -13q-9 0 -17 11.5t-8 26.5q0 14 11 14q9 0 17 -11.5t8 -27.5zM272 553q-3 -4 -7 -4t-4 2q0 3 4 3q5 0 7 -1z
M566 553q-3 -4 -7 -4t-4 2q0 3 4 3q5 0 7 -1zM171 548q-8 0 -11.5 5t-3.5 10q0 9 8 9t9 -5l3 -19h-5zM441 -88q0 13 -11 13t-11 -12q0 -13 11 -13t11 12zM800 -88q0 13 -11 13t-11 -12q0 -13 11 -13t11 12zM559 -80l-5 -12h10zM394 -83q0 8 -11 7v-13q11 0 11 6zM525 -82
q0 8 -11 6v-12q11 -1 11 6zM606 -83q0 8 -11 7v-13q11 0 11 6zM309 48q-2 0 -3 1q-3 1 -3 5v20q0 2 3 4q1 1 3 1v2h-18v-2q1 0 3 -1q3 -3 3 -4v-9q-2 0 -4 2l-8 8q-3 1 -1 3q1 1 2 1v2h-14v-2q1 0 3 -1t2.5 -1.5t2.5 -1.5l10 -9l-13 -13q-1 -1 -2 -1.5t-2 -1.5q-2 -1 -3 -2
v-2h17v2q-2 0 -3 1t1 4l8 8q2 2 4 2v-9q0 -2 -3 -5q-2 -1 -3 -1v-2h18v2zM364 48q-2 0 -3 1q-2 2 -2 4v20q0 3 2 5q1 1 3 1v2h-18q-13 0 -13 -9q0 -5 9 -9l-7 -10q-2 -2 -3.5 -2.5t-2.5 -1.5l-2 -1v-2h11l7 12q3 4 7 4v-9q0 -2 -1 -2.5t-2 -1.5t-2 -1v-2h17v2zM425 64
q0 8 -5 13t-15 5t-15 -5t-5 -13t5 -13.5t15 -5.5t15 5.5t5 13.5zM480 81h-15v-2q1 0 2 -1t-1 -4l-6 -9l-6 9q-2 2 0 4q1 1 3 1v2h-15v-2q1 0 3 -1t5 -4l8 -12v-8q0 -2 -3 -5q-1 -1 -2 -1v-2h17v2q-2 0 -3 1q-2 2 -2 5v8l8 12q1 2 2.5 2.5t2.5 1.5t2 1v2zM568 81v-2q1 0 2 -1
t0 -4l-9 -19l-5 10l4 8q1 2 2 2.5t2 1.5l2 2v2h-26l1 -2q1 0 2 -1l2 -2l3 -3l3 -5l-7 -13l-8 18q-2 3 0 5q1 1 2 1v2h-13v-2q1 0 2 -1q3 -3 4 -5l13 -27h1q1 -1 1 0l8 16l9 -16h1l12 27q1 2 2.5 3t2.5 2t2 1v2h-15zM633 48q-2 -1 -3 0q-2 0 -2 5v21q0 3 2 5h3v2h-29l-2 -10
l2 -1q0 2 2 4q2 4 7 4h4q4 0 4 -3v-10h-4q-3 0 -5 2q-1 1 -1 3h-2v-13h2q0 1 1 3q3 3 5 3h4v-11q0 -3 -4 -3h-4q-4 0 -8 4q-2 2 -2 5l-2 -1l2 -11h30v2zM694 48q-2 0 -3 1q-3 1 -3 4v20q0 2 3 4q1 1 3 2v2h-10l-24 -26v18q0 3 3 5q1 1 3 1v2h-15v-2q1 0 3 -1q3 -3 3 -5v-28
h3l25 28v-20q0 -1 -3 -4q-1 -1 -2 -1v-2h14v2zM827 133h-685v-6h685v6zM306 174q-2 0 -4 1t-3.5 2t-2.5 5l-7 35q-1 5 3 7q2 1 4 1l-1 3h-27q-20 0 -20 -15q0 -6 5.5 -10t13.5 -5l-9 -16q-2 -4 -4.5 -5t-4.5 -2q-3 -1 -5 -1l1 -3h19l12 23q1 3 5 3l3 -15q1 -5 -3 -7
q-2 -1 -4 -1l1 -3h29zM413 175q-2 -1 -4 0q-5 2 -6 9l-8 31q-3 9 8 10l-1 3h-30q-9 0 -17 -5.5t-8 -16.5q0 -16 11 -25.5t24 -9.5h32zM522 174q-1 0 -3 1q-5 2 -6 9l-7 32q-1 6 3 8q2 1 5 1l-1 3h-14l-29 -42l-5 30q-1 6 3 8q2 1 4 1l-1 3h-21l1 -3q2 0 4 -1q3 -2 5 -8
l8 -45l3 -1l30 44l6 -30q1 -7 -2 -9q-2 -1 -4 -1l1 -3h21zM620 228h-29l1 -3q2 0 4 -1q5 -2 6 -8l5 -21q2 -10 1 -15t-12 -5q-8 0 -13 6.5t-7 15.5l-4 19q-1 7 3 9q2 1 4 0v3h-24l1 -3q2 0 5 -1q5 -2 6 -8l4 -19q2 -8 8 -17.5t20 -9.5q17 0 19 8t0 16l-5 22q-2 4 -0.5 6
t3.5 3t5 0zM822 174q-2 0 -4 1t-3.5 2t-2.5 5l-7 35q-1 5 3 7q2 1 4 1l-1 3h-45v-10v-7h4q-1 3 1 6q2 7 12 7h4q5 0 6 -6l3 -16h-4q-5 0 -9 4q-2 2 -3 5h-3l5 -23h3q0 2 1 5q2 6 7 6h4l3 -17q1 -5 -3 -7q-2 -1 -4 -1l1 -3h29zM203 217q-3 5 -6.5 9t-11.5 4q-15 0 -14 -23
q-3 10 -8 16.5t-13 6.5q-5 0 -8.5 -3t-3.5 -9l3 -1q0 6 8 6q10 0 15.5 -10.5t8.5 -22.5q2 -7 1 -9.5t-3 -4.5t-4 -1l1 -4h28l-1 4q-2 -1 -4 0q-5 2 -6 9q-5 17 -5 25q0 13 9 13q5 0 7.5 -2.5l4.5 -4.5zM728 192q0 15 -11.5 26.5t-25.5 11.5q-7 0 -15 -5t-8 -17
q0 -16 11.5 -27t25.5 -11q7 0 15 5t8 17zM827 277h-685v-6h685v6zM283 341h-14v65h14v34h-141v-62h41v28h33v-20h-24v-24h24v-21h-33v28h-41v-61h141v33zM458 341h-14v65h14v34h-96q-22 0 -34.5 -11.5t-12.5 -28.5t12.5 -28.5t34.5 -11.5h30v-19h-15v-33h81v33zM648 440h-81
v-34h11l-15 -23l-15 23h10v34h-62v-34h12l37 -46v-19h-14v-33h81v33h-15v20l37 45h14v34zM827 440h-147v-62h36v28h11v-65h-14v-33h81v33h-14v65h11v-28h36v62zM827 481h-685v-6h685v6zM400 521q0 2 -3 5t-10 4q-4 3 -4.5 10.5t-2 16t-6 15t-16.5 6.5q-5 0 -9 -3.5t-4 -6.5
q0 -5 5 -5q4 0 4 6t5 6t6.5 -5t2.5 -12t3.5 -14.5t8.5 -13.5q-11 0 -14.5 -6.5t-8.5 -6.5t-5 4q0 2 1 2.5t1 2.5q0 5 -5 5t-5 -7q0 -5 5 -8.5t10 -3.5q13 0 15 6.5t10 6.5q3 -7 12 -7q4 0 4 3zM202 522q-2 0 -4 1t-3.5 2t-2.5 5l-7 35q-1 5 3 7q2 1 4 1l-1 3h-27
q-20 0 -20 -15q0 -6 5.5 -10t13.5 -5l-9 -16q-2 -4 -4.5 -5t-4.5 -2q-3 -1 -5 -1l1 -3h19l12 23q1 3 5 3l3 -15q1 -5 -3 -7q-2 -1 -4 -1l1 -3h29zM497 522q-2 0 -4 1t-3.5 2t-2.5 5l-7 35q-1 5 3 7q2 1 4 1l-1 3h-45v-10v-7h4q-1 3 1 6q2 7 12 7h4q5 0 6 -6l3 -16h-4
q-5 0 -9 4q-2 2 -3 5h-3l5 -23h3q0 2 1 5q2 6 7 6h4l3 -17q1 -5 -3 -7q-2 -1 -4 -1l1 -3h29zM820 522q-2 0 -4 1t-3.5 2t-2.5 5l-7 35q-1 5 3 7q2 1 4 1l-1 3h-28l1 -3q2 0 4 -1q4 -2 5 -7l3 -15h-24l-3 15q-1 5 3 7q2 1 4 1l-1 3h-29l1 -3q2 0 4 -1q5 -2 6 -7l7 -35
q1 -5 -3 -7q-2 -1 -4 -1l1 -3h29l-1 3q-2 0 -4 1t-3.5 2t-2.5 5l-3 16h24l3 -16q1 -5 -3 -7q-2 -1 -4 -1l1 -3h29zM295 537q0 12 -14 17q5 3 5 9q0 5 -5 10t-16 5q-13 0 -13 -11q0 -6 5 -6q4 0 4 3t-1.5 3.5t-1.5 2.5q0 5 7 5q10 0 10 -12q0 -4 -2 -6q-16 2 -16 -6
q0 -6 8 -6q6 0 11 5q6 -5 6 -15q0 -14 -12 -14t-12 9q0 3 3 3q1 0 2 -1t3 -1q4 0 4 5t-7 5q-9 0 -9 -10q0 -13 16 -13q13 0 19 5.5t6 13.5zM589 537q0 12 -14 17q5 3 5 9q0 5 -5 10t-16 5q-13 0 -13 -11q0 -6 5 -6q4 0 4 3t-1.5 3.5t-1.5 2.5q0 5 7 5q10 0 10 -12
q0 -4 -2 -6q-16 2 -16 -6q0 -6 8 -6q6 0 11 5q6 -5 6 -15q0 -14 -12 -14t-12 9q0 3 3 3q1 0 2 -1t3 -1q4 0 4 5t-7 5q-9 0 -9 -10q0 -13 16 -13q13 0 19 5.5t6 13.5zM696 540q0 15 -11.5 26.5t-25.5 11.5q-7 0 -15 -5t-8 -17q0 -16 11.5 -27t25.5 -11q7 0 15 5t8 17z
M827 624h-685v-6h685v6zM439 664q-2 -1 -3 0q-2 0 -2 5v21q0 3 2 5h3v2h-29l-2 -10l2 -1q0 2 2 4q2 4 7 4h4q4 0 4 -3v-10h-4q-3 0 -5 2q-1 1 -1 3h-2v-13h2q0 1 1 3q3 3 5 3h4v-11q0 -3 -4 -3h-4q-4 0 -8 4q-2 2 -2 5l-2 -1l2 -11h30v2zM504 664q-2 -1 -3 0q-3 0 -3 5v21
q0 3 3 5h3v2h-18v-1v-1h2q3 -3 3 -5v-9h-17v9q0 3 2 5h3v1v1h-17v-2h2q3 -3 3 -5v-21q0 -2 -1 -2.5t-2 -1.5t-2 -1v-2h17v2q-2 0 -3 1q-2 2 -2 4v10h17v-10q0 -5 -3 -5q-1 -1 -2 0v-2h18v2zM559 686v4q0 2 -0.5 4t-0.5 4q-2 -1 -17 -1t-18 1q0 -2 -0.5 -4t-0.5 -4v-4h2
q1 2 3 4q5 5 7 5q3 0 3 -3v-23q0 -5 -3 -5q-1 -1 -2 0v-2h17v2q-2 -1 -3 0q-2 0 -2 5v23q0 3 3 3t8 -5q2 -2 2 -4h2zM284 -101q0 -4 -4 -4t-4 4t4 4t4 -4zM716 -101q0 -4 -4 -4t-4 4t4 4t4 -4zM143 -105h-1l-11 23l-10 -23h-1l-12 34l6 1l7 -23l10 23h1l10 -23l7 22h6z
M199 -105h-1l-11 23l-10 -23h-1l-12 34l6 1l7 -23l10 23h1l10 -23l7 22h6zM255 -105h-1l-11 23l-10 -23h-1l-12 34l6 1l7 -23l10 23h1l10 -23l7 22h6zM323 -76h-12v-28h-6v28h-12v5h30v-5zM351 -90v-14h-6v14l-14 19l6 1l11 -15l9 14h7zM400 -82q0 -12 -17 -12v-10h-6v33
q14 2 18.5 -2t4.5 -9zM447 -87q0 -8 -4.5 -13t-12.5 -5t-12.5 5t-4.5 12q0 8 5 13t13 5q7 0 11.5 -5t4.5 -12zM491 -101q-6 -4 -13 -4q-8 0 -13 4.5t-5 12.5t5.5 13t13.5 5q6 0 12 -4l-2 -5q-4 4 -11 4q-12 0 -12 -13q0 -12 13 -12q2 0 6 2v7h-9v5h15v-15zM527 -104l-8 11
h-5v-11h-6v33q14 2 18.5 -1.5t4.5 -8.5q0 -7 -7 -10l10 -13h-7zM570 -104l-4 8h-14l-3 -8h-6l15 34h2l16 -34h-6zM612 -82q0 -12 -17 -12v-10h-6v33q14 2 18.5 -2t4.5 -9zM650 -104v15h-16v-15h-6v33h6v-13h16v13h6v-33h-6zM689 -90v-14h-6v14l-14 19l6 1l11 -15l9 14h7z
M757 -102q-3 -3 -10 -3q-18 0 -18 17q0 8 5 13t13 5q6 0 11 -3l-2 -5q-3 3 -9 3q-5 0 -8.5 -3.5t-3.5 -8.5q0 -13 13 -13q4 0 10 4zM806 -87q0 -8 -4.5 -13t-12.5 -5t-12.5 5t-4.5 12q0 8 5 13t13 5q7 0 11.5 -5t4.5 -12zM853 -104l-3 20l-10 -21h-2l-10 21l-3 -20h-6l6 34
h1l13 -26l13 26h1l6 -34h-6zM101 0v750h767v-750h-767z" />
  </font>
</defs>
</svg>
